<svg xmlns="http://www.w3.org/2000/svg" width="26" height="25" fill="none" viewBox="0 0 26 25">
  <path fill="#464646" d="M.5 12.5c0-2.267.558-4.358 1.675-6.275a12.411 12.411 0 0 1 4.55-4.55C8.642.558 10.733 0 13 0c2.267 0 4.358.558 6.275 1.675a12.41 12.41 0 0 1 4.55 4.55C24.942 8.142 25.5 10.233 25.5 12.5c0 2.267-.558 4.358-1.675 6.275a12.41 12.41 0 0 1-4.55 4.55C17.358 24.442 15.267 25 13 25c-2.267 0-4.358-.558-6.275-1.675a12.411 12.411 0 0 1-4.55-4.55C1.058 16.858.5 14.767.5 12.5Zm2.075 0c0 2.6.875 4.892 2.625 6.875C6 17.808 7.267 16.317 9 14.9c1.733-1.417 3.425-2.308 5.075-2.675a29.692 29.692 0 0 0-.725-1.575c-2.867.917-5.967 1.375-9.3 1.375-.65 0-1.133-.008-1.45-.025 0 .067-.004.15-.013.25-.008.1-.012.183-.012.25ZM2.9 9.925c.367.033.908.05 1.625.05 2.783 0 5.425-.375 7.925-1.125-1.267-2.25-2.658-4.125-4.175-5.625A10.149 10.149 0 0 0 4.887 6 10.674 10.674 0 0 0 2.9 9.925Zm3.725 10.8c1.883 1.467 4.008 2.2 6.375 2.2 1.233 0 2.458-.233 3.675-.7a36.707 36.707 0 0 0-1.95-8.275c-1.533.333-3.08 1.175-4.637 2.525-1.559 1.35-2.713 2.767-3.463 4.25Zm3.825-18.3c1.467 1.517 2.825 3.408 4.075 5.675 2.267-.95 3.975-2.158 5.125-3.625-1.933-1.6-4.15-2.4-6.65-2.4-.85 0-1.7.117-2.55.35Zm4.975 7.45c.25.533.533 1.208.85 2.025a42.898 42.898 0 0 1 4.025-.175c1.033 0 2.058.025 3.075.075-.133-2.267-.95-4.283-2.45-6.05-1.083 1.617-2.917 2.992-5.5 4.125ZM16.9 13.65c.85 2.467 1.425 5 1.725 7.6a10.43 10.43 0 0 0 3.225-3.275 10.099 10.099 0 0 0 1.5-4.325 49.031 49.031 0 0 0-3.325-.125c-.917 0-1.958.042-3.125.125Z"/>
</svg>
