<svg xmlns="http://www.w3.org/2000/svg" width="25" height="16" fill="none" viewBox="0 0 25 16">
  <path fill="#464646" d="M10.07 6.845c1.38-.631 2.1-1.586 2.1-3.072C12.17.843 9.887.13 7.253.13H0v14.71h7.457c2.795 0 5.42-1.283 5.42-4.271 0-1.847-.915-3.213-2.808-3.723ZM3.38 2.64h3.173c1.22 0 2.318.328 2.318 1.681 0 1.25-.856 1.752-2.062 1.752H3.38V2.64Zm3.616 9.7H3.38V8.289h3.685c1.489 0 2.43.593 2.43 2.1 0 1.486-1.124 1.95-2.5 1.95Zm15.56-9.99h-6.238V.9h6.237v1.45ZM25 9.667c0-3.15-1.927-5.777-5.421-5.777-3.394 0-5.699 2.44-5.699 5.636 0 3.316 2.183 5.59 5.699 5.59 2.66 0 4.384-1.145 5.213-3.582h-2.7c-.29.91-1.489 1.39-2.418 1.39-1.792 0-2.734-1.003-2.734-2.71h8.034A7.35 7.35 0 0 0 25 9.667Zm-8.056-1.295c.1-1.399 1.073-2.274 2.54-2.274 1.536 0 2.308.863 2.439 2.274h-4.979Z"/>
</svg>
