<svg xmlns="http://www.w3.org/2000/svg" width="157" height="24" fill="none" viewBox="0 0 157 24">
  <path fill="#00AC47" d="M20.42 15.025V7.227l.807-1.681 4.034-3.193a.822.822 0 0 1 1.344.638V18.32c0 .706-.84 1.076-1.378.639l-4.807-3.933Z"/>
  <path fill="#EA4335" d="M7.04 0 .52 6.521h6.52V0Z"/>
  <path fill="#2684FC" d="M7.04 6.555H.52v8.504h6.52V6.555Z"/>
  <path fill="#0066DA" d="M.52 15.025v4.37a2.18 2.18 0 0 0 2.185 2.185h4.37v-6.521H.52v-.034Z"/>
  <path fill="#FFBA00" d="M21.258 2.151C21.258.975 20.283 0 19.14 0H7.04v6.521h8v4.269l6.219-.202V2.151Z"/>
  <path fill="#00AC47" d="M15.04 15.025h-8v6.521h12.067c1.176 0 2.117-.974 2.117-2.15V10.79H15.04v4.235Z"/>
  <path fill="#00832D" d="M21.26 5.58v10.117l-6.22-4.907 6.219-5.21Z"/>
  <path fill="#5F6368" d="M112.889 18.689h-1.916V3.73h1.916l5.21 9.11h.067l5.21-9.11h1.916v14.958h-1.916V9.815l.067-2.521h-.067l-4.672 8.202h-1.143l-4.672-8.202h-.067l.067 2.521v8.874Zm19.7.336c-1.512 0-2.756-.504-3.731-1.546-.975-1.042-1.479-2.32-1.479-3.9 0-1.546.471-2.857 1.412-3.899.941-1.042 2.151-1.58 3.63-1.58 1.513 0 2.723.505 3.63 1.48.908.974 1.345 2.352 1.345 4.134l-.034.202h-8.033c.033 1.008.369 1.815 1.008 2.42a3.229 3.229 0 0 0 2.286.907c1.21 0 2.185-.605 2.891-1.848l1.714.84c-.471.874-1.109 1.546-1.916 2.017-.773.538-1.681.773-2.723.773Zm-3.059-6.69h5.849c-.067-.705-.336-1.31-.874-1.747-.504-.47-1.21-.706-2.084-.706-.739 0-1.344.235-1.882.672-.504.437-.841 1.042-1.009 1.782Zm14.352 6.69c-1.512 0-2.756-.504-3.731-1.546-.975-1.042-1.479-2.32-1.479-3.9 0-1.546.471-2.857 1.412-3.899.941-1.042 2.151-1.58 3.63-1.58 1.513 0 2.723.505 3.63 1.48.908.974 1.345 2.352 1.345 4.134l-.034.202h-8.033c.033 1.008.369 1.815 1.008 2.42a3.229 3.229 0 0 0 2.286.907c1.21 0 2.185-.605 2.891-1.848l1.714.84c-.471.874-1.109 1.546-1.916 2.017-.74.538-1.681.773-2.723.773Zm-3.059-6.69h5.883c-.067-.705-.336-1.31-.874-1.747-.504-.47-1.21-.706-2.084-.706-.74 0-1.345.235-1.883.672-.537.437-.874 1.042-1.042 1.782Zm13.446 6.522c-.841 0-1.547-.27-2.084-.773-.538-.505-.807-1.244-.841-2.152v-5.714h-1.781V8.437h1.781V5.31h1.916v3.126h2.521v1.748h-2.521v5.109c0 .672.135 1.143.404 1.412.268.235.571.37.907.37.168 0 .303 0 .437-.034.168-.034.303-.101.403-.135l.606 1.715a6.882 6.882 0 0 1-1.748.235ZM47.579 12.37v-2.286h7.663c.068.403.135.874.135 1.412 0 1.714-.47 3.832-1.983 5.344-1.48 1.546-3.362 2.353-5.849 2.353-4.605 0-8.47-3.765-8.47-8.37 0-4.605 3.865-8.37 8.47-8.37 2.555 0 4.37 1.009 5.714 2.32l-1.613 1.613c-.975-.907-2.32-1.647-4.135-1.647-3.36 0-5.983 2.723-5.983 6.084 0 3.362 2.622 6.084 5.983 6.084 2.185 0 3.429-.874 4.236-1.68.638-.639 1.075-1.58 1.243-2.857h-5.41Zm19.428 1.411c0 3.093-2.42 5.379-5.411 5.379-2.992 0-5.412-2.286-5.412-5.379 0-3.126 2.42-5.378 5.412-5.378 2.958 0 5.411 2.252 5.411 5.378Zm-2.386 0c0-1.95-1.412-3.26-3.025-3.26-1.647 0-3.026 1.31-3.026 3.26 0 1.916 1.412 3.261 3.026 3.261 1.613 0 3.025-1.345 3.025-3.26Zm14.149 0c0 3.093-2.421 5.379-5.413 5.379-2.991 0-5.411-2.286-5.411-5.379 0-3.126 2.42-5.378 5.411-5.378 2.992 0 5.412 2.252 5.412 5.378Zm-2.354 0c0-1.95-1.412-3.26-3.025-3.26-1.647 0-3.025 1.31-3.025 3.26 0 1.916 1.412 3.261 3.025 3.261s3.025-1.345 3.025-3.26Zm13.682-5.076v9.68c0 3.967-2.352 5.614-5.109 5.614-2.622 0-4.168-1.747-4.773-3.193l2.05-.84c.37.874 1.278 1.916 2.723 1.916 1.782 0 2.891-1.11 2.891-3.16v-.773h-.067c-.538.639-1.547 1.21-2.824 1.21-2.689 0-5.176-2.353-5.176-5.378s2.453-5.412 5.176-5.412c1.277 0 2.32.572 2.824 1.21h.067v-.874h2.218Zm-2.084 5.076c0-1.883-1.277-3.294-2.89-3.294-1.647 0-2.992 1.378-2.992 3.294 0 1.882 1.378 3.26 2.992 3.26 1.613 0 2.89-1.378 2.89-3.26ZM94.1 3.059v15.764h-2.354V3.06H94.1Zm9.14 12.504 1.849 1.21c-.605.874-2.017 2.387-4.471 2.387-3.059 0-5.344-2.353-5.344-5.379 0-3.193 2.319-5.378 5.075-5.378 2.79 0 4.168 2.219 4.605 3.429l.236.605-7.194 2.992c.538 1.075 1.412 1.647 2.622 1.647 1.143-.034 1.983-.64 2.622-1.513Zm-5.68-1.95 4.806-1.983c-.269-.672-1.076-1.143-1.983-1.143-1.21-.033-2.857 1.042-2.824 3.126Z"/>
</svg>
