<svg xmlns="http://www.w3.org/2000/svg" width="24" height="23" fill="none" viewBox="0 0 24 23">
  <path fill="#464646" d="M0 2.614C0 1.856.267 1.23.802.739 1.337.246 2.032 0 2.89 0c.84 0 1.52.242 2.04.727.535.5.802 1.152.802 1.955 0 .727-.26 1.333-.78 1.818-.534.5-1.237.75-2.108.75H2.82C1.98 5.25 1.3 5 .78 4.5S0 3.371 0 2.614ZM.298 22.5V7.318h5.09V22.5H.297Zm7.91 0h5.088v-8.477c0-.53.062-.94.184-1.228a3.3 3.3 0 0 1 .974-1.306c.436-.356.982-.535 1.64-.535 1.71 0 2.567 1.144 2.567 3.432V22.5h5.089v-8.705c0-2.242-.535-3.943-1.605-5.102-1.07-1.159-2.483-1.738-4.24-1.738-1.972 0-3.508.84-4.609 2.522v.046h-.023l.023-.046V7.318H8.207c.03.485.046 1.993.046 4.523 0 2.53-.015 6.083-.046 10.659Z"/>
</svg>
