<svg xmlns="http://www.w3.org/2000/svg" width="135" height="28" fill="none" viewBox="0 0 135 28">
  <g clip-path="url(#a)">
    <path fill="#737373" d="M56.147 5.6v16.8h-2.998V9.217h-.04L47.752 22.4h-1.999L40.277 9.217h-.04V22.4h-2.759V5.6h4.318l4.957 12.444h.08L52.069 5.6h4.078Zm2.478 1.283c0-.466.16-.855.52-1.166.36-.311.76-.467 1.24-.467.519 0 .959.156 1.278.467.32.31.52.7.52 1.166 0 .467-.16.856-.52 1.167-.36.311-.76.467-1.279.467-.52 0-.92-.156-1.239-.467-.32-.35-.52-.739-.52-1.167Zm3.238 3.462V22.4h-2.918V10.345h2.918Zm8.835 9.994c.44 0 .92-.078 1.439-.311.52-.195 1-.467 1.439-.778v2.645c-.48.272-1 .466-1.6.583-.599.116-1.238.194-1.958.194-1.839 0-3.318-.544-4.437-1.672-1.16-1.128-1.719-2.567-1.719-4.278 0-1.944.6-3.539 1.759-4.783 1.16-1.245 2.798-1.867 4.957-1.867.56 0 1.12.078 1.639.195.56.116 1 .31 1.319.466v2.723c-.44-.311-.92-.584-1.36-.74-.479-.155-.959-.271-1.438-.271-1.16 0-2.079.35-2.799 1.088-.72.74-1.039 1.712-1.039 2.956 0 1.206.36 2.178 1.04 2.839.679.66 1.599 1.01 2.758 1.01ZM81.85 10.15c.24 0 .44 0 .64.039s.36.078.48.117v2.877a1.814 1.814 0 0 0-.68-.31c-.32-.079-.64-.156-1.08-.156-.72 0-1.319.31-1.799.894-.48.583-.76 1.478-.76 2.722V22.4h-2.917V10.345h2.918v1.905h.04c.28-.661.68-1.167 1.199-1.556.56-.35 1.2-.544 1.959-.544Zm1.279 6.417c0-1.984.6-3.578 1.719-4.745 1.16-1.166 2.758-1.75 4.797-1.75 1.919 0 3.438.545 4.517 1.673 1.08 1.127 1.639 2.644 1.639 4.55 0 1.944-.6 3.5-1.719 4.666-1.16 1.167-2.718 1.75-4.717 1.75-1.919 0-3.438-.544-4.557-1.633-1.12-1.128-1.679-2.645-1.679-4.511Zm3.038-.117c0 1.245.28 2.217.88 2.878.6.66 1.439 1.01 2.518 1.01 1.04 0 1.879-.31 2.438-1.01.56-.661.84-1.633.84-2.956 0-1.283-.28-2.255-.84-2.955-.56-.661-1.399-1.011-2.398-1.011-1.08 0-1.879.35-2.478 1.05-.68.739-.96 1.71-.96 2.994Zm13.991-2.917c0 .39.12.74.4.973.28.233.84.505 1.759.855 1.159.467 1.999.972 2.438 1.517.48.583.72 1.244.72 2.06 0 1.129-.44 2.023-1.359 2.723-.88.7-2.119 1.011-3.638 1.011-.52 0-1.08-.078-1.719-.194a7.06 7.06 0 0 1-1.599-.467v-2.8c.52.35 1.12.661 1.72.856.599.194 1.158.31 1.678.31.64 0 1.159-.077 1.439-.271.32-.195.48-.467.48-.895 0-.389-.16-.7-.48-1.011-.32-.272-.959-.583-1.839-.933-1.079-.428-1.839-.934-2.278-1.478-.44-.544-.68-1.245-.68-2.1 0-1.089.44-1.983 1.32-2.683.879-.7 2.038-1.05 3.437-1.05.44 0 .92.038 1.439.155.52.117 1 .233 1.359.35v2.761a8.659 8.659 0 0 0-1.359-.66 4.332 4.332 0 0 0-1.519-.273c-.559 0-.999.117-1.279.311-.28.272-.44.545-.44.933Zm6.556 3.034c0-1.984.6-3.578 1.719-4.745 1.159-1.166 2.758-1.75 4.797-1.75 1.919 0 3.438.545 4.517 1.673 1.08 1.127 1.639 2.644 1.639 4.55 0 1.944-.599 3.5-1.719 4.666-1.159 1.167-2.718 1.75-4.717 1.75-1.918 0-3.438-.544-4.557-1.633-1.079-1.128-1.679-2.645-1.679-4.511Zm3.038-.117c0 1.245.28 2.217.88 2.878.599.66 1.439 1.01 2.518 1.01 1.04 0 1.879-.31 2.439-1.01.559-.661.839-1.633.839-2.956 0-1.283-.28-2.255-.839-2.955-.56-.661-1.399-1.011-2.399-1.011-1.079 0-1.879.35-2.478 1.05-.64.739-.96 1.71-.96 2.994Zm19.348-3.772h-4.357V22.4h-2.958v-9.722h-2.079v-2.334h2.079V8.672c0-1.244.44-2.294 1.279-3.11.839-.818 1.919-1.206 3.238-1.206.36 0 .68.038.959.038.28 0 .52.078.72.156V7a4.986 4.986 0 0 0-.52-.194 2.723 2.723 0 0 0-.839-.117c-.6 0-1.08.194-1.399.544-.32.35-.48.934-.48 1.634v1.439h4.357V7.583l2.918-.855v3.578h2.959v2.333h-2.959v5.639c0 .739.16 1.244.4 1.555.28.312.72.467 1.319.467.16 0 .36-.039.6-.117.24-.077.44-.155.6-.272v2.333c-.2.117-.48.195-.92.273a7.11 7.11 0 0 1-1.279.116c-1.239 0-2.159-.31-2.758-.933-.6-.622-.92-1.594-.92-2.878l.04-6.144Z"/>
    <path fill="#F25022" d="M.023 0h13.672v13.3H.023V0Z"/>
    <path fill="#7FBA00" d="M15.133 0h13.671v13.3H15.133V0Z"/>
    <path fill="#00A4EF" d="M.023 14.7h13.672V28H.023V14.7Z"/>
    <path fill="#FFB900" d="M15.133 14.7h13.671V28H15.133V14.7Z"/>
  </g>
  <defs>
    <clipPath id="a">
      <path fill="#fff" d="M0 0h135v28H0z"/>
    </clipPath>
  </defs>
</svg>
