<svg xmlns="http://www.w3.org/2000/svg" xmlns:xlink="http://www.w3.org/1999/xlink" width="558" height="356" fill="none" viewBox="0 0 558 356">
  <path stroke="#2E63EB" stroke-linecap="round" stroke-linejoin="round" d="M209.5 91.5V338"/>
  <path stroke="#E7E7E7" stroke-dasharray="8 8" stroke-linejoin="round" d="M30 91v248M72 91v248m40-248v248m38-248v248m38.5-248v248m42-248v248m40-248v248m38-248v248m42-248v248M389 91v248m42-248v248m40-248v248m38-248v248"/>
  <g filter="url(#a)">
    <rect width="198" height="47" x="30" y="125" fill="#2E63EB" rx="23.5"/>
    <rect width="49" height="22" x="45" y="137.5" fill="#4D7AEE" rx="11"/>
    <path fill="#fff" d="M55.96 152.5c-.16 0-.24-.12-.24-.36v-.144c0-.24.08-.36.24-.36h2.088v-6.468l-2.124.36c-.056 0-.104-.036-.144-.108a1.043 1.043 0 0 1-.072-.252 1.558 1.558 0 0 1-.024-.252c0-.12.072-.196.216-.228l2.784-.612c.088 0 .172.024.252.072.08.048.12.108.12.18v7.308h1.776c.16 0 .24.12.24.36v.144c0 .24-.08.36-.24.36H55.96Zm8.666.072c-.48 0-.928-.148-1.344-.444-.408-.296-.74-.76-.996-1.392-.256-.632-.384-1.444-.384-2.436 0-1 .128-1.812.384-2.436.256-.632.588-1.096.996-1.392a2.274 2.274 0 0 1 2.7 0c.416.296.752.76 1.008 1.392.256.624.384 1.436.384 2.436 0 .992-.128 1.804-.384 2.436-.256.632-.592 1.096-1.008 1.392a2.291 2.291 0 0 1-1.356.444Zm0-.864c.288 0 .564-.108.828-.324.264-.224.48-.584.648-1.08.168-.496.252-1.164.252-2.004 0-.84-.084-1.508-.252-2.004-.168-.496-.384-.852-.648-1.068-.264-.224-.54-.336-.828-.336-.288 0-.564.112-.828.336-.256.216-.468.572-.636 1.068-.16.496-.24 1.164-.24 2.004 0 .84.08 1.508.24 2.004.168.496.38.856.636 1.08.264.216.54.324.828.324Zm6.422.864c-.48 0-.928-.148-1.344-.444-.408-.296-.74-.76-.996-1.392-.256-.632-.384-1.444-.384-2.436 0-1 .128-1.812.384-2.436.256-.632.588-1.096.996-1.392a2.274 2.274 0 0 1 2.7 0c.416.296.752.76 1.008 1.392.256.624.384 1.436.384 2.436 0 .992-.128 1.804-.384 2.436-.256.632-.592 1.096-1.008 1.392a2.291 2.291 0 0 1-1.356.444Zm0-.864c.288 0 .564-.108.828-.324.264-.224.48-.584.648-1.08.168-.496.252-1.164.252-2.004 0-.84-.084-1.508-.252-2.004-.168-.496-.384-.852-.648-1.068-.264-.224-.54-.336-.828-.336-.288 0-.564.112-.828.336-.256.216-.468.572-.636 1.068-.16.496-.24 1.164-.24 2.004 0 .84.08 1.508.24 2.004.168.496.38.856.636 1.08.264.216.54.324.828.324Zm5.438.876c-.192 0-.288-.036-.288-.108 0-.04.016-.08.048-.12l4.476-8.1c.04-.08.1-.136.18-.168a.717.717 0 0 1 .3-.06h.06c.192 0 .288.036.288.108a.197.197 0 0 1-.012.06.587.587 0 0 1-.036.06l-4.476 8.1a.333.333 0 0 1-.192.168.638.638 0 0 1-.288.06h-.06Zm4.596-.024c-.248 0-.5-.048-.756-.144-.248-.104-.46-.292-.636-.564-.168-.28-.252-.688-.252-1.224 0-.544.08-.956.24-1.236.168-.28.376-.472.624-.576.256-.104.516-.156.78-.156.248 0 .496.052.744.156.256.104.468.296.636.576.176.28.264.692.264 1.236 0 .536-.088.944-.264 1.224-.176.272-.392.46-.648.564a2.018 2.018 0 0 1-.732.144Zm0-.66c.256 0 .444-.064.564-.192.128-.136.212-.304.252-.504.04-.2.06-.392.06-.576 0-.192-.016-.388-.048-.588a.94.94 0 0 0-.24-.516c-.12-.144-.316-.216-.588-.216-.264 0-.456.072-.576.216a.987.987 0 0 0-.228.516c-.032.2-.048.396-.048.588 0 .184.016.376.048.576.032.2.108.368.228.504.128.128.32.192.576.192Zm-4.452-3.972c-.248 0-.5-.048-.756-.144-.248-.104-.46-.292-.636-.564-.168-.28-.252-.688-.252-1.224 0-.544.08-.956.24-1.236.168-.28.376-.472.624-.576.256-.104.516-.156.78-.156.248 0 .496.052.744.156.256.104.468.296.636.576.176.28.264.692.264 1.236 0 .536-.088.944-.264 1.224-.168.272-.38.46-.636.564a2.113 2.113 0 0 1-.744.144Zm0-.66c.256 0 .444-.064.564-.192.128-.136.212-.304.252-.504.04-.2.06-.392.06-.576 0-.192-.016-.388-.048-.588a.94.94 0 0 0-.24-.516c-.12-.144-.316-.216-.588-.216-.264 0-.456.072-.576.216a.987.987 0 0 0-.228.516c-.032.2-.048.396-.048.588 0 .184.016.376.048.576.032.2.108.368.228.504.128.128.32.192.576.192Zm19.894 5.232c-.24 0-.36-.12-.36-.36v-7.68c0-.24.12-.36.36-.36h2.424c.688 0 1.312.136 1.872.408.56.264 1.004.704 1.332 1.32.336.608.504 1.432.504 2.472 0 .776-.096 1.436-.288 1.98-.192.536-.456.968-.792 1.296-.336.32-.728.556-1.176.708a4.72 4.72 0 0 1-1.452.216h-2.424Zm.696-.912h1.644c.504 0 .96-.108 1.368-.324.408-.216.732-.564.972-1.044.24-.48.36-1.12.36-1.92 0-.8-.12-1.44-.36-1.92s-.564-.828-.972-1.044a2.878 2.878 0 0 0-1.368-.324H97.22v6.576Zm9.724.984c-.992 0-1.732-.26-2.22-.78-.48-.52-.72-1.316-.72-2.388 0-.712.104-1.308.312-1.788.216-.48.532-.844.948-1.092.416-.248.928-.372 1.536-.372.552 0 1.008.12 1.368.36.368.24.644.592.828 1.056.184.464.276 1.036.276 1.716a.41.41 0 0 1-.072.192.923.923 0 0 1-.156.204c-.064.064-.12.096-.168.096h-3.792c.048.664.22 1.152.516 1.464.296.312.74.468 1.332.468.352 0 .648-.04.888-.12a4.01 4.01 0 0 0 .588-.252c.144-.088.236-.132.276-.132.056 0 .116.04.18.12.064.08.12.168.168.264a.553.553 0 0 1 .072.216c0 .072-.056.152-.168.24a1.92 1.92 0 0 1-.468.252c-.192.08-.42.148-.684.204a4.566 4.566 0 0 1-.84.072Zm-1.86-3.66h3.12c0-.632-.12-1.104-.36-1.416-.24-.32-.6-.48-1.08-.48-.52 0-.92.16-1.2.48-.28.312-.44.784-.48 1.416Zm7.105 3.696c-.36 0-.684-.044-.972-.132a2.38 2.38 0 0 1-.684-.312c-.168-.12-.252-.224-.252-.312 0-.048.024-.12.072-.216.048-.096.104-.184.168-.264.064-.08.124-.12.18-.12.032 0 .104.04.216.12.112.08.268.16.468.24.208.08.452.12.732.12.784 0 1.176-.296 1.176-.888 0-.32-.116-.552-.348-.696a3.386 3.386 0 0 0-.852-.396 6.534 6.534 0 0 1-.804-.336 1.693 1.693 0 0 1-.624-.564c-.16-.24-.24-.564-.24-.972 0-.336.084-.636.252-.9.176-.264.412-.468.708-.612a2.276 2.276 0 0 1 1.032-.228c.272 0 .528.024.768.072.24.048.436.112.588.192.152.08.228.164.228.252a.644.644 0 0 1-.072.252 1.28 1.28 0 0 1-.144.276c-.056.08-.112.12-.168.12-.032 0-.14-.052-.324-.156-.184-.104-.44-.156-.768-.156-.296 0-.548.072-.756.216a.66.66 0 0 0-.312.588c0 .224.064.404.192.54.128.128.376.252.744.372s.696.264.984.432c.288.16.516.368.684.624.168.248.252.572.252.972 0 .36-.096.68-.288.96-.184.28-.436.504-.756.672-.32.16-.68.24-1.08.24Zm4.153-.084c-.32 0-.48-.088-.48-.264v-5.796c0-.176.16-.264.48-.264h.048c.32 0 .48.088.48.264v5.796c0 .176-.16.264-.48.264h-.048Zm.024-7.164c-.192 0-.328-.024-.408-.072-.08-.048-.12-.112-.12-.192v-.72c0-.08.04-.144.12-.192.08-.048.216-.072.408-.072.192 0 .328.024.408.072a.2.2 0 0 1 .12.192v.72c0 .08-.04.144-.12.192-.08.048-.216.072-.408.072Zm4.615 9.684c-.472 0-.892-.052-1.26-.156-.368-.096-.656-.26-.864-.492-.208-.232-.312-.54-.312-.924 0-.352.1-.66.3-.924.2-.264.448-.46.744-.588l.012-.024a1.39 1.39 0 0 1-.336-.408c-.08-.16-.12-.352-.12-.576 0-.256.056-.476.168-.66a1.48 1.48 0 0 1 .48-.492 1.794 1.794 0 0 1-.78-.696 2.025 2.025 0 0 1-.252-.996c0-.368.088-.696.264-.984.184-.296.452-.532.804-.708.352-.176.784-.264 1.296-.264.128 0 .252.008.372.024.12.008.232.024.336.048h2.184c.16 0 .24.12.24.36v.144c0 .24-.08.36-.24.36-.096 0-.24-.008-.432-.024a5.528 5.528 0 0 1-.492-.06l-.012.024c.16.176.264.348.312.516.056.168.084.356.084.564a1.856 1.856 0 0 1-1.068 1.704c-.344.176-.776.264-1.296.264-.344 0-.612.056-.804.168-.184.112-.276.3-.276.564 0 .24.092.416.276.528.184.104.416.176.696.216.288.032.588.068.9.108.36.04.684.116.972.228.296.104.528.264.696.48.176.208.264.496.264.864 0 .384-.108.708-.324.972-.208.272-.524.48-.948.624-.424.144-.952.216-1.584.216Zm.132-.828c.6 0 1.044-.076 1.332-.228a.726.726 0 0 0 .432-.696c0-.24-.096-.416-.288-.528a1.988 1.988 0 0 0-.708-.24c-.288-.04-.584-.072-.888-.096a4.216 4.216 0 0 1-.804-.156 1.53 1.53 0 0 0-.504.372c-.136.16-.204.372-.204.636 0 .336.124.576.372.72.256.144.676.216 1.26.216Zm0-4.98c.384 0 .712-.08.984-.24.28-.16.42-.452.42-.876 0-.432-.14-.728-.42-.888-.272-.16-.6-.24-.984-.24s-.712.08-.984.24c-.272.16-.408.456-.408.888 0 .424.136.716.408.876.272.16.6.24.984.24Zm4.895 3.288c-.32 0-.48-.088-.48-.264v-4.212c0-.328-.012-.6-.036-.816a5.344 5.344 0 0 0-.072-.492 2.19 2.19 0 0 1-.036-.204c0-.056.024-.1.072-.132a.52.52 0 0 1 .192-.084c.072-.024.144-.04.216-.048.072-.008.128-.012.168-.012.096 0 .168.044.216.132a.912.912 0 0 1 .12.324c.032.12.06.232.084.336.256-.28.548-.5.876-.66.328-.16.66-.24.996-.24.616 0 1.096.172 1.44.516.344.344.516.82.516 1.428v4.164c0 .176-.16.264-.48.264h-.048c-.32 0-.48-.088-.48-.264v-4.068c0-.368-.108-.652-.324-.852-.208-.208-.508-.312-.9-.312a1.66 1.66 0 0 0-.816.228 2.4 2.4 0 0 0-.696.612v4.392c0 .176-.16.264-.48.264h-.048Zm10.979.048c-.512 0-.968-.06-1.368-.18-.4-.12-.696-.252-.888-.396-.152-.112-.228-.212-.228-.3 0-.064.024-.148.072-.252.056-.104.116-.196.18-.276.072-.08.128-.12.168-.12.024 0 .056.012.096.036.048.016.1.044.156.084.16.088.392.192.696.312.304.12.676.18 1.116.18.304 0 .572-.056.804-.168.24-.12.428-.288.564-.504.136-.216.204-.464.204-.744 0-.32-.088-.576-.264-.768a1.88 1.88 0 0 0-.672-.492 13.123 13.123 0 0 0-.876-.372 12.5 12.5 0 0 1-.756-.312 3.219 3.219 0 0 1-.672-.432c-.2-.168-.36-.38-.48-.636-.12-.264-.18-.592-.18-.984 0-.432.108-.816.324-1.152.224-.336.536-.596.936-.78.4-.192.868-.288 1.404-.288.168 0 .356.016.564.048.216.032.424.08.624.144.208.064.376.14.504.228.16.096.24.2.24.312a.636.636 0 0 1-.072.24 1.335 1.335 0 0 1-.168.276c-.056.08-.104.12-.144.12a.364.364 0 0 1-.132-.036 1.836 1.836 0 0 0-.192-.108 4.643 4.643 0 0 0-.492-.204 2.259 2.259 0 0 0-.756-.108c-.296 0-.564.052-.804.156a1.29 1.29 0 0 0-.552.456c-.128.2-.192.448-.192.744 0 .288.076.516.228.684.152.168.352.308.6.42.248.104.516.212.804.324.264.104.528.22.792.348.272.12.52.272.744.456.224.184.4.416.528.696.136.272.204.612.204 1.02 0 .36-.064.684-.192.972-.12.288-.3.532-.54.732-.232.2-.512.356-.84.468-.32.104-.684.156-1.092.156Zm4.634 2.424c-.264 0-.396-.064-.396-.192v-.06a2.94 2.94 0 0 0 .06-.144l1.164-2.82v.78l-2.256-6a.372.372 0 0 1-.024-.072.353.353 0 0 1-.012-.084c0-.136.172-.204.516-.204h.096c.12 0 .224.016.312.048.088.024.144.072.168.144l1.224 3.252c.072.2.14.404.204.612.064.208.124.408.18.6h.024c.064-.184.128-.384.192-.6.064-.224.132-.428.204-.612l1.2-3.252c.024-.072.08-.12.168-.144a.954.954 0 0 1 .324-.048h.036c.32 0 .48.068.48.204 0 .04-.012.096-.036.168l-3.084 8.172a.325.325 0 0 1-.204.192.94.94 0 0 1-.36.06h-.18Zm6.474-2.388c-.36 0-.684-.044-.972-.132a2.38 2.38 0 0 1-.684-.312c-.168-.12-.252-.224-.252-.312 0-.048.024-.12.072-.216.048-.096.104-.184.168-.264.064-.08.124-.12.18-.12.032 0 .104.04.216.12.112.08.268.16.468.24.208.08.452.12.732.12.784 0 1.176-.296 1.176-.888 0-.32-.116-.552-.348-.696a3.386 3.386 0 0 0-.852-.396 6.534 6.534 0 0 1-.804-.336 1.693 1.693 0 0 1-.624-.564c-.16-.24-.24-.564-.24-.972 0-.336.084-.636.252-.9.176-.264.412-.468.708-.612a2.276 2.276 0 0 1 1.032-.228c.272 0 .528.024.768.072.24.048.436.112.588.192.152.08.228.164.228.252a.644.644 0 0 1-.072.252 1.28 1.28 0 0 1-.144.276c-.056.08-.112.12-.168.12-.032 0-.14-.052-.324-.156-.184-.104-.44-.156-.768-.156-.296 0-.548.072-.756.216a.66.66 0 0 0-.312.588c0 .224.064.404.192.54.128.128.376.252.744.372s.696.264.984.432c.288.16.516.368.684.624.168.248.252.572.252.972 0 .36-.096.68-.288.96-.184.28-.436.504-.756.672-.32.16-.68.24-1.08.24Zm5.413-.036c-.152 0-.316-.024-.492-.072a1.426 1.426 0 0 1-.504-.228 1.342 1.342 0 0 1-.396-.504c-.104-.224-.156-.508-.156-.852v-3.828h-.6c-.16 0-.24-.12-.24-.36v-.144c0-.24.08-.36.24-.36h.6l.144-1.26c.016-.176.144-.264.384-.264h.12c.24 0 .36.088.36.264v1.26h1.008c.16 0 .24.12.24.36v.144c0 .24-.08.36-.24.36h-1.008v3.732c0 .36.064.6.192.72a.67.67 0 0 0 .456.168c.176 0 .292-.008.348-.024a.424.424 0 0 1 .168-.036c.056 0 .1.04.132.12.04.08.068.168.084.264a.844.844 0 0 1 .036.18c0 .104-.052.184-.156.24a1.05 1.05 0 0 1-.348.096c-.136.016-.26.024-.372.024Zm4.869 0c-.992 0-1.732-.26-2.22-.78-.48-.52-.72-1.316-.72-2.388 0-.712.104-1.308.312-1.788.216-.48.532-.844.948-1.092.416-.248.928-.372 1.536-.372.552 0 1.008.12 1.368.36.368.24.644.592.828 1.056.184.464.276 1.036.276 1.716a.41.41 0 0 1-.072.192.923.923 0 0 1-.156.204c-.064.064-.12.096-.168.096h-3.792c.048.664.22 1.152.516 1.464.296.312.74.468 1.332.468.352 0 .648-.04.888-.12a4.01 4.01 0 0 0 .588-.252c.144-.088.236-.132.276-.132.056 0 .116.04.18.12.064.08.12.168.168.264a.553.553 0 0 1 .072.216c0 .072-.056.152-.168.24a1.92 1.92 0 0 1-.468.252c-.192.08-.42.148-.684.204a4.566 4.566 0 0 1-.84.072Zm-1.86-3.66h3.12c0-.632-.12-1.104-.36-1.416-.24-.32-.6-.48-1.08-.48-.52 0-.92.16-1.2.48-.28.312-.44.784-.48 1.416Zm6.229 3.612c-.32 0-.48-.088-.48-.264v-4.212c0-.328-.012-.6-.036-.816a5.344 5.344 0 0 0-.072-.492 2.19 2.19 0 0 1-.036-.204c0-.056.024-.1.072-.132a.52.52 0 0 1 .192-.084c.072-.024.144-.04.216-.048.072-.008.128-.012.168-.012.096 0 .168.044.216.132a.912.912 0 0 1 .12.324c.032.12.06.232.084.336.2-.232.456-.44.768-.624.32-.184.672-.276 1.056-.276.2 0 .408.028.624.084.224.048.432.144.624.288.2.144.356.352.468.624.232-.272.512-.504.84-.696.336-.2.692-.3 1.068-.3.192 0 .396.028.612.084.216.048.42.14.612.276.2.136.36.332.48.588.12.256.18.588.18.996v4.164c0 .176-.16.264-.48.264h-.048c-.32 0-.48-.088-.48-.264v-4.068c0-.352-.096-.632-.288-.84-.192-.216-.48-.324-.864-.324-.216 0-.416.044-.6.132a2.476 2.476 0 0 0-.48.312 2.456 2.456 0 0 0-.324.312 2.493 2.493 0 0 1-.132.168l-.012-.408c.04.088.064.184.072.288.008.096.012.188.012.276v4.152c0 .176-.16.264-.48.264h-.048c-.32 0-.48-.088-.48-.264v-4.068c0-.352-.096-.632-.288-.84-.192-.216-.48-.324-.864-.324-.216 0-.416.044-.6.132-.176.08-.332.176-.468.288-.128.104-.228.2-.3.288l-.096.12v4.404c0 .176-.16.264-.48.264h-.048Z"/>
    <circle cx="185.5" cy="148.5" r="12.5" fill="url(#b)" stroke="#fff" stroke-width="1.5"/>
    <circle cx="200.5" cy="148.5" r="12.5" fill="url(#c)" stroke="#fff" stroke-width="1.5"/>
  </g>
  <g filter="url(#d)">
    <rect width="250" height="47" x="154" y="192" fill="#fff" rx="23.5"/>
    <rect width="43" height="22" x="169" y="204.5" fill="#4D7AEE" fill-opacity=".1" rx="11"/>
    <path fill="#4D7AEE" d="M182.204 219.572c-.48 0-.916-.088-1.308-.264a2.104 2.104 0 0 1-.936-.816c-.232-.376-.348-.848-.348-1.416 0-.424.06-.772.18-1.044s.28-.492.48-.66c.208-.176.432-.32.672-.432-.28-.168-.516-.4-.708-.696-.192-.304-.288-.684-.288-1.14 0-.456.1-.836.3-1.14.208-.312.484-.544.828-.696a2.75 2.75 0 0 1 1.152-.24c.424 0 .808.08 1.152.24.352.152.632.384.84.696.208.304.312.684.312 1.14 0 .488-.112.876-.336 1.164-.224.288-.5.508-.828.66.264.112.504.252.72.42.216.168.388.388.516.66.136.272.204.628.204 1.068 0 .432-.068.804-.204 1.116a2.153 2.153 0 0 1-.564.78c-.232.2-.508.352-.828.456a3.411 3.411 0 0 1-1.008.144Zm0-.864c.288 0 .548-.06.78-.18.24-.12.432-.3.576-.54.144-.248.216-.552.216-.912 0-.304-.06-.548-.18-.732a1.415 1.415 0 0 0-.48-.468 3.018 3.018 0 0 0-.648-.3c-.24-.088-.48-.18-.72-.276-.304.176-.564.4-.78.672-.216.272-.324.64-.324 1.104 0 .544.152.952.456 1.224.312.272.68.408 1.104.408Zm.288-4.104c.288-.168.532-.372.732-.612.2-.24.3-.536.3-.888 0-.424-.128-.732-.384-.924a1.477 1.477 0 0 0-.912-.288c-.352 0-.652.096-.9.288-.248.192-.372.5-.372.924 0 .32.072.572.216.756.144.184.332.332.564.444.232.104.484.204.756.3Zm6.134 4.968c-.48 0-.928-.148-1.344-.444-.408-.296-.74-.76-.996-1.392-.256-.632-.384-1.444-.384-2.436 0-1 .128-1.812.384-2.436.256-.632.588-1.096.996-1.392a2.274 2.274 0 0 1 2.7 0c.416.296.752.76 1.008 1.392.256.624.384 1.436.384 2.436 0 .992-.128 1.804-.384 2.436-.256.632-.592 1.096-1.008 1.392a2.291 2.291 0 0 1-1.356.444Zm0-.864c.288 0 .564-.108.828-.324.264-.224.48-.584.648-1.08.168-.496.252-1.164.252-2.004 0-.84-.084-1.508-.252-2.004-.168-.496-.384-.852-.648-1.068-.264-.224-.54-.336-.828-.336-.288 0-.564.112-.828.336-.256.216-.468.572-.636 1.068-.16.496-.24 1.164-.24 2.004 0 .84.08 1.508.24 2.004.168.496.38.856.636 1.08.264.216.54.324.828.324Zm5.438.876c-.192 0-.288-.036-.288-.108 0-.04.016-.08.048-.12l4.476-8.1c.04-.08.1-.136.18-.168a.717.717 0 0 1 .3-.06h.06c.192 0 .288.036.288.108a.197.197 0 0 1-.012.06.587.587 0 0 1-.036.06l-4.476 8.1a.333.333 0 0 1-.192.168.638.638 0 0 1-.288.06h-.06Zm4.596-.024c-.248 0-.5-.048-.756-.144-.248-.104-.46-.292-.636-.564-.168-.28-.252-.688-.252-1.224 0-.544.08-.956.24-1.236.168-.28.376-.472.624-.576.256-.104.516-.156.78-.156.248 0 .496.052.744.156.256.104.468.296.636.576.176.28.264.692.264 1.236 0 .536-.088.944-.264 1.224-.176.272-.392.46-.648.564a2.018 2.018 0 0 1-.732.144Zm0-.66c.256 0 .444-.064.564-.192.128-.136.212-.304.252-.504.04-.2.06-.392.06-.576 0-.192-.016-.388-.048-.588a.94.94 0 0 0-.24-.516c-.12-.144-.316-.216-.588-.216-.264 0-.456.072-.576.216a.987.987 0 0 0-.228.516c-.032.2-.048.396-.048.588 0 .184.016.376.048.576.032.2.108.368.228.504.128.128.32.192.576.192Zm-4.452-3.972c-.248 0-.5-.048-.756-.144-.248-.104-.46-.292-.636-.564-.168-.28-.252-.688-.252-1.224 0-.544.08-.956.24-1.236.168-.28.376-.472.624-.576.256-.104.516-.156.78-.156.248 0 .496.052.744.156.256.104.468.296.636.576.176.28.264.692.264 1.236 0 .536-.088.944-.264 1.224-.168.272-.38.46-.636.564a2.113 2.113 0 0 1-.744.144Zm0-.66c.256 0 .444-.064.564-.192.128-.136.212-.304.252-.504.04-.2.06-.392.06-.576 0-.192-.016-.388-.048-.588a.94.94 0 0 0-.24-.516c-.12-.144-.316-.216-.588-.216-.264 0-.456.072-.576.216a.987.987 0 0 0-.228.516c-.032.2-.048.396-.048.588 0 .184.016.376.048.576.032.2.108.368.228.504.128.128.32.192.576.192Z"/>
    <path fill="#202020" d="M247.916 219.524c-.12 0-.228-.012-.324-.036-.088-.032-.14-.084-.156-.156l-2.052-7.884a1.153 1.153 0 0 1-.024-.084.353.353 0 0 1-.012-.084c0-.136.172-.204.516-.204h.12c.12 0 .224.016.312.048.096.024.152.072.168.144l1.404 5.472c.048.168.092.352.132.552.04.192.076.376.108.552.032.176.052.324.06.444h.048c.032-.128.06-.256.084-.384l.096-.384.096-.384 1.452-5.856c.016-.08.068-.132.156-.156a.913.913 0 0 1 .312-.048h.192c.12 0 .224.016.312.048.088.024.14.076.156.156l1.38 5.46c.048.168.088.348.12.54.04.192.076.376.108.552.032.176.052.328.06.456h.048c.032-.128.06-.264.084-.408a15.968 15.968 0 0 1 .18-.732l1.452-5.88c.016-.072.068-.12.156-.144.096-.032.204-.048.324-.048h.072c.344 0 .516.068.516.204a.83.83 0 0 1-.036.168l-2.076 7.884c-.016.072-.072.124-.168.156a1.195 1.195 0 0 1-.312.036h-.492c-.12 0-.228-.012-.324-.036-.088-.032-.14-.084-.156-.156l-1.14-4.26c-.088-.328-.172-.7-.252-1.116-.072-.416-.12-.772-.144-1.068h-.048c-.024.288-.064.604-.12.948a5.963 5.963 0 0 1-.168.828l-1.248 4.668c-.016.072-.072.124-.168.156a1.195 1.195 0 0 1-.312.036h-.492Zm9.578 0c-.32 0-.48-.088-.48-.264v-5.796c0-.176.16-.264.48-.264h.048c.32 0 .48.088.48.264v5.796c0 .176-.16.264-.48.264h-.048Zm.024-7.164c-.192 0-.328-.024-.408-.072-.08-.048-.12-.112-.12-.192v-.72c0-.08.04-.144.12-.192.08-.048.216-.072.408-.072.192 0 .328.024.408.072a.2.2 0 0 1 .12.192v.72c0 .08-.04.144-.12.192-.08.048-.216.072-.408.072Zm3.14 7.164c-.32 0-.48-.088-.48-.264v-4.212c0-.328-.012-.6-.036-.816a5.344 5.344 0 0 0-.072-.492 2.19 2.19 0 0 1-.036-.204c0-.056.024-.1.072-.132a.52.52 0 0 1 .192-.084c.072-.024.144-.04.216-.048.072-.008.128-.012.168-.012.096 0 .168.044.216.132a.912.912 0 0 1 .12.324c.032.12.06.232.084.336.208-.288.428-.508.66-.66.24-.16.484-.24.732-.24.232 0 .404.04.516.12.12.072.18.188.18.348 0 .072-.012.16-.036.264a.93.93 0 0 1-.084.276c-.032.072-.072.108-.12.108-.08 0-.16-.02-.24-.06-.072-.048-.212-.072-.42-.072a.947.947 0 0 0-.564.18c-.168.12-.3.244-.396.372l-.144.18v4.392c0 .176-.16.264-.48.264h-.048Zm6.2.048c-.992 0-1.732-.26-2.22-.78-.48-.52-.72-1.316-.72-2.388 0-.712.104-1.308.312-1.788.216-.48.532-.844.948-1.092.416-.248.928-.372 1.536-.372.552 0 1.008.12 1.368.36.368.24.644.592.828 1.056.184.464.276 1.036.276 1.716a.41.41 0 0 1-.072.192.923.923 0 0 1-.156.204c-.064.064-.12.096-.168.096h-3.792c.048.664.22 1.152.516 1.464.296.312.74.468 1.332.468.352 0 .648-.04.888-.12a4.01 4.01 0 0 0 .588-.252c.144-.088.236-.132.276-.132.056 0 .116.04.18.12.064.08.12.168.168.264a.553.553 0 0 1 .072.216c0 .072-.056.152-.168.24a1.92 1.92 0 0 1-.468.252c-.192.08-.42.148-.684.204a4.566 4.566 0 0 1-.84.072Zm-1.86-3.66h3.12c0-.632-.12-1.104-.36-1.416-.24-.32-.6-.48-1.08-.48-.52 0-.92.16-1.2.48-.28.312-.44.784-.48 1.416Zm6.505 3.612c-.32 0-.48-.088-.48-.264v-5.172h-.48c-.16 0-.24-.12-.24-.36v-.144c0-.24.08-.36.24-.36h.48v-1.14c0-.36.052-.648.156-.864.104-.216.236-.38.396-.492.16-.12.328-.2.504-.24.176-.04.34-.06.492-.06.112 0 .236.008.372.024s.252.048.348.096a.247.247 0 0 1 .156.24c0 .032-.012.096-.036.192a.934.934 0 0 1-.084.252c-.032.08-.076.12-.132.12a.609.609 0 0 1-.168-.024c-.056-.024-.172-.036-.348-.036-.112 0-.22.02-.324.06a.493.493 0 0 0-.24.252c-.056.12-.084.312-.084.576v1.044h1.044c.16 0 .24.12.24.36v.144c0 .24-.08.36-.24.36h-1.044v5.172c0 .176-.16.264-.48.264h-.048Zm3.686 0c-.32 0-.48-.088-.48-.264v-4.212c0-.328-.012-.6-.036-.816a5.344 5.344 0 0 0-.072-.492 2.19 2.19 0 0 1-.036-.204c0-.056.024-.1.072-.132a.52.52 0 0 1 .192-.084c.072-.024.144-.04.216-.048.072-.008.128-.012.168-.012.096 0 .168.044.216.132a.912.912 0 0 1 .12.324c.032.12.06.232.084.336.208-.288.428-.508.66-.66.24-.16.484-.24.732-.24.232 0 .404.04.516.12.12.072.18.188.18.348 0 .072-.012.16-.036.264a.93.93 0 0 1-.084.276c-.032.072-.072.108-.12.108-.08 0-.16-.02-.24-.06-.072-.048-.212-.072-.42-.072a.947.947 0 0 0-.564.18c-.168.12-.3.244-.396.372l-.144.18v4.392c0 .176-.16.264-.48.264h-.048Zm5.24.048c-.584 0-1.072-.144-1.464-.432-.392-.296-.588-.752-.588-1.368 0-.504.12-.9.36-1.188.24-.296.556-.512.948-.648a4.94 4.94 0 0 1 1.284-.276c.472-.04.936-.064 1.392-.072v-.564a.988.988 0 0 0-.288-.708c-.192-.2-.536-.3-1.032-.3-.36 0-.676.044-.948.132-.264.08-.476.164-.636.252-.152.08-.248.12-.288.12-.056 0-.116-.04-.18-.12a1.482 1.482 0 0 1-.168-.264.646.646 0 0 1-.072-.216c0-.104.104-.216.312-.336.208-.12.484-.22.828-.3a4.493 4.493 0 0 1 1.116-.132c.496 0 .92.076 1.272.228.352.144.62.356.804.636.192.28.288.62.288 1.02v2.688c0 .328.012.6.036.816.024.216.048.38.072.492.024.112.036.18.036.204 0 .056-.028.104-.084.144a.756.756 0 0 1-.18.084 2.027 2.027 0 0 1-.384.048.258.258 0 0 1-.228-.132 1.643 1.643 0 0 1-.12-.336c-.024-.136-.048-.26-.072-.372-.152.168-.328.32-.528.456a2.615 2.615 0 0 1-1.488.444Zm.048-.876c.44 0 .804-.084 1.092-.252a4.78 4.78 0 0 0 .792-.576v-1.416c-.312 0-.636.012-.972.036-.336.016-.652.06-.948.132a1.546 1.546 0 0 0-.72.372c-.176.168-.264.408-.264.72 0 .32.084.564.252.732.176.168.432.252.768.252Zm5.351.828c-.32 0-.48-.088-.48-.264v-4.212c0-.328-.012-.6-.036-.816a5.344 5.344 0 0 0-.072-.492 2.19 2.19 0 0 1-.036-.204c0-.056.024-.1.072-.132a.52.52 0 0 1 .192-.084c.072-.024.144-.04.216-.048.072-.008.128-.012.168-.012.096 0 .168.044.216.132a.912.912 0 0 1 .12.324c.032.12.06.232.084.336.2-.232.456-.44.768-.624.32-.184.672-.276 1.056-.276.2 0 .408.028.624.084.224.048.432.144.624.288.2.144.356.352.468.624.232-.272.512-.504.84-.696.336-.2.692-.3 1.068-.3.192 0 .396.028.612.084.216.048.42.14.612.276.2.136.36.332.48.588.12.256.18.588.18.996v4.164c0 .176-.16.264-.48.264h-.048c-.32 0-.48-.088-.48-.264v-4.068c0-.352-.096-.632-.288-.84-.192-.216-.48-.324-.864-.324-.216 0-.416.044-.6.132a2.476 2.476 0 0 0-.48.312 2.456 2.456 0 0 0-.324.312 2.493 2.493 0 0 1-.132.168l-.012-.408c.04.088.064.184.072.288.008.096.012.188.012.276v4.152c0 .176-.16.264-.48.264h-.048c-.32 0-.48-.088-.48-.264v-4.068c0-.352-.096-.632-.288-.84-.192-.216-.48-.324-.864-.324-.216 0-.416.044-.6.132-.176.08-.332.176-.468.288-.128.104-.228.2-.3.288l-.096.12v4.404c0 .176-.16.264-.48.264h-.048Zm12.272.048c-.992 0-1.732-.26-2.22-.78-.48-.52-.72-1.316-.72-2.388 0-.712.104-1.308.312-1.788.216-.48.532-.844.948-1.092.416-.248.928-.372 1.536-.372.552 0 1.008.12 1.368.36.368.24.644.592.828 1.056.184.464.276 1.036.276 1.716a.41.41 0 0 1-.072.192.923.923 0 0 1-.156.204c-.064.064-.12.096-.168.096h-3.792c.048.664.22 1.152.516 1.464.296.312.74.468 1.332.468.352 0 .648-.04.888-.12a4.01 4.01 0 0 0 .588-.252c.144-.088.236-.132.276-.132.056 0 .116.04.18.12.064.08.12.168.168.264a.553.553 0 0 1 .072.216c0 .072-.056.152-.168.24a1.92 1.92 0 0 1-.468.252c-.192.08-.42.148-.684.204a4.566 4.566 0 0 1-.84.072Zm-1.86-3.66h3.12c0-.632-.12-1.104-.36-1.416-.24-.32-.6-.48-1.08-.48-.52 0-.92.16-1.2.48-.28.312-.44.784-.48 1.416Z"/>
    <circle cx="346.5" cy="215.5" r="12.5" fill="url(#e)" stroke="#fff" stroke-width="1.5"/>
    <circle cx="361.5" cy="215.5" r="12.5" fill="url(#f)" stroke="#fff" stroke-width="1.5"/>
    <circle cx="376.5" cy="215.5" r="12.5" fill="url(#g)" stroke="#fff" stroke-width="1.5"/>
  </g>
  <g filter="url(#h)">
    <rect width="195" height="47" x="314" y="259" fill="#fff" rx="23.5"/>
    <rect width="43" height="22" x="329" y="271.5" fill="#4D7AEE" fill-opacity=".1" rx="11"/>
    <path fill="#4D7AEE" d="M343.512 286.524c-.24 0-.36-.088-.36-.264v-1.764h-3.648c-.04 0-.084-.036-.132-.108a1.052 1.052 0 0 1-.12-.252 1.058 1.058 0 0 1-.036-.252c0-.072.008-.116.024-.132l3.948-5.508a.326.326 0 0 1 .168-.12.642.642 0 0 1 .24-.048h.192c.24 0 .36.088.36.264v5.292h.804c.16 0 .24.12.24.36v.144c0 .24-.08.36-.24.36h-.804v1.764c0 .176-.12.264-.36.264h-.276Zm-3.108-2.892h2.748v-2.976c0-.136.004-.292.012-.468.008-.176.024-.328.048-.456l-.048-.024-2.76 3.924Zm8.222 2.94c-.48 0-.928-.148-1.344-.444-.408-.296-.74-.76-.996-1.392-.256-.632-.384-1.444-.384-2.436 0-1 .128-1.812.384-2.436.256-.632.588-1.096.996-1.392a2.274 2.274 0 0 1 2.7 0c.416.296.752.76 1.008 1.392.256.624.384 1.436.384 2.436 0 .992-.128 1.804-.384 2.436-.256.632-.592 1.096-1.008 1.392a2.291 2.291 0 0 1-1.356.444Zm0-.864c.288 0 .564-.108.828-.324.264-.224.48-.584.648-1.08.168-.496.252-1.164.252-2.004 0-.84-.084-1.508-.252-2.004-.168-.496-.384-.852-.648-1.068-.264-.224-.54-.336-.828-.336-.288 0-.564.112-.828.336-.256.216-.468.572-.636 1.068-.16.496-.24 1.164-.24 2.004 0 .84.08 1.508.24 2.004.168.496.38.856.636 1.08.264.216.54.324.828.324Zm5.438.876c-.192 0-.288-.036-.288-.108 0-.04.016-.08.048-.12l4.476-8.1c.04-.08.1-.136.18-.168a.717.717 0 0 1 .3-.06h.06c.192 0 .288.036.288.108a.197.197 0 0 1-.012.06.587.587 0 0 1-.036.06l-4.476 8.1a.333.333 0 0 1-.192.168.638.638 0 0 1-.288.06h-.06Zm4.596-.024c-.248 0-.5-.048-.756-.144-.248-.104-.46-.292-.636-.564-.168-.28-.252-.688-.252-1.224 0-.544.08-.956.24-1.236.168-.28.376-.472.624-.576.256-.104.516-.156.78-.156.248 0 .496.052.744.156.256.104.468.296.636.576.176.28.264.692.264 1.236 0 .536-.088.944-.264 1.224-.176.272-.392.46-.648.564a2.018 2.018 0 0 1-.732.144Zm0-.66c.256 0 .444-.064.564-.192.128-.136.212-.304.252-.504.04-.2.06-.392.06-.576 0-.192-.016-.388-.048-.588a.94.94 0 0 0-.24-.516c-.12-.144-.316-.216-.588-.216-.264 0-.456.072-.576.216a.987.987 0 0 0-.228.516c-.032.2-.048.396-.048.588 0 .184.016.376.048.576.032.2.108.368.228.504.128.128.32.192.576.192Zm-4.452-3.972c-.248 0-.5-.048-.756-.144-.248-.104-.46-.292-.636-.564-.168-.28-.252-.688-.252-1.224 0-.544.08-.956.24-1.236.168-.28.376-.472.624-.576.256-.104.516-.156.78-.156.248 0 .496.052.744.156.256.104.468.296.636.576.176.28.264.692.264 1.236 0 .536-.088.944-.264 1.224-.168.272-.38.46-.636.564a2.113 2.113 0 0 1-.744.144Zm0-.66c.256 0 .444-.064.564-.192.128-.136.212-.304.252-.504.04-.2.06-.392.06-.576 0-.192-.016-.388-.048-.588a.94.94 0 0 0-.24-.516c-.12-.144-.316-.216-.588-.216-.264 0-.456.072-.576.216a.987.987 0 0 0-.228.516c-.032.2-.048.396-.048.588 0 .184.016.376.048.576.032.2.108.368.228.504.128.128.32.192.576.192Z"/>
    <path fill="#202020" d="M384.272 286.572c-1.064 0-1.876-.244-2.436-.732s-.84-1.164-.84-2.028v-5.472c0-.176.16-.264.48-.264h.096c.32 0 .48.088.48.264v5.508c0 .352.096.668.288.948.192.272.456.484.792.636.336.152.716.228 1.14.228.432 0 .812-.076 1.14-.228.336-.16.6-.376.792-.648.192-.272.288-.584.288-.936v-5.508c0-.176.16-.264.48-.264h.096c.32 0 .48.088.48.264v5.472c0 .864-.284 1.54-.852 2.028-.56.488-1.368.732-2.424.732Zm5.915-.048c-.32 0-.48-.088-.48-.264v-7.92c0-.176.16-.264.48-.264h.096c.32 0 .48.088.48.264v7.92c0 .176-.16.264-.48.264h-.096Zm6.161-.024c-.24 0-.36-.12-.36-.36v-7.68c0-.24.12-.36.36-.36h2.424c.688 0 1.312.136 1.872.408.56.264 1.004.704 1.332 1.32.336.608.504 1.432.504 2.472 0 .776-.096 1.436-.288 1.98-.192.536-.456.968-.792 1.296-.336.32-.728.556-1.176.708a4.72 4.72 0 0 1-1.452.216h-2.424Zm.696-.912h1.644c.504 0 .96-.108 1.368-.324.408-.216.732-.564.972-1.044.24-.48.36-1.12.36-1.92 0-.8-.12-1.44-.36-1.92s-.564-.828-.972-1.044a2.878 2.878 0 0 0-1.368-.324h-1.644v6.576Zm9.724.984c-.992 0-1.732-.26-2.22-.78-.48-.52-.72-1.316-.72-2.388 0-.712.104-1.308.312-1.788.216-.48.532-.844.948-1.092.416-.248.928-.372 1.536-.372.552 0 1.008.12 1.368.36.368.24.644.592.828 1.056.184.464.276 1.036.276 1.716a.41.41 0 0 1-.072.192.923.923 0 0 1-.156.204c-.064.064-.12.096-.168.096h-3.792c.048.664.22 1.152.516 1.464.296.312.74.468 1.332.468.352 0 .648-.04.888-.12a4.01 4.01 0 0 0 .588-.252c.144-.088.236-.132.276-.132.056 0 .116.04.18.12.064.08.12.168.168.264a.553.553 0 0 1 .072.216c0 .072-.056.152-.168.24a1.92 1.92 0 0 1-.468.252c-.192.08-.42.148-.684.204a4.566 4.566 0 0 1-.84.072Zm-1.86-3.66h3.12c0-.632-.12-1.104-.36-1.416-.24-.32-.6-.48-1.08-.48-.52 0-.92.16-1.2.48-.28.312-.44.784-.48 1.416Zm7.105 3.696c-.36 0-.684-.044-.972-.132a2.38 2.38 0 0 1-.684-.312c-.168-.12-.252-.224-.252-.312 0-.048.024-.12.072-.216.048-.096.104-.184.168-.264.064-.08.124-.12.18-.12.032 0 .104.04.216.12.112.08.268.16.468.24.208.08.452.12.732.12.784 0 1.176-.296 1.176-.888 0-.32-.116-.552-.348-.696a3.386 3.386 0 0 0-.852-.396 6.534 6.534 0 0 1-.804-.336 1.693 1.693 0 0 1-.624-.564c-.16-.24-.24-.564-.24-.972 0-.336.084-.636.252-.9.176-.264.412-.468.708-.612a2.276 2.276 0 0 1 1.032-.228c.272 0 .528.024.768.072.24.048.436.112.588.192.152.08.228.164.228.252a.644.644 0 0 1-.072.252 1.28 1.28 0 0 1-.144.276c-.056.08-.112.12-.168.12-.032 0-.14-.052-.324-.156-.184-.104-.44-.156-.768-.156-.296 0-.548.072-.756.216a.66.66 0 0 0-.312.588c0 .224.064.404.192.54.128.128.376.252.744.372s.696.264.984.432c.288.16.516.368.684.624.168.248.252.572.252.972 0 .36-.096.68-.288.96-.184.28-.436.504-.756.672-.32.16-.68.24-1.08.24Zm4.153-.084c-.32 0-.48-.088-.48-.264v-5.796c0-.176.16-.264.48-.264h.048c.32 0 .48.088.48.264v5.796c0 .176-.16.264-.48.264h-.048Zm.024-7.164c-.192 0-.328-.024-.408-.072-.08-.048-.12-.112-.12-.192v-.72c0-.08.04-.144.12-.192.08-.048.216-.072.408-.072.192 0 .328.024.408.072a.2.2 0 0 1 .12.192v.72c0 .08-.04.144-.12.192-.08.048-.216.072-.408.072Zm4.616 9.684c-.472 0-.892-.052-1.26-.156-.368-.096-.656-.26-.864-.492-.208-.232-.312-.54-.312-.924 0-.352.1-.66.3-.924.2-.264.448-.46.744-.588l.012-.024a1.39 1.39 0 0 1-.336-.408c-.08-.16-.12-.352-.12-.576 0-.256.056-.476.168-.66a1.48 1.48 0 0 1 .48-.492 1.794 1.794 0 0 1-.78-.696 2.025 2.025 0 0 1-.252-.996c0-.368.088-.696.264-.984.184-.296.452-.532.804-.708.352-.176.784-.264 1.296-.264.128 0 .252.008.372.024.12.008.232.024.336.048h2.184c.16 0 .24.12.24.36v.144c0 .24-.08.36-.24.36-.096 0-.24-.008-.432-.024a5.528 5.528 0 0 1-.492-.06l-.012.024c.16.176.264.348.312.516.056.168.084.356.084.564a1.856 1.856 0 0 1-1.068 1.704c-.344.176-.776.264-1.296.264-.344 0-.612.056-.804.168-.184.112-.276.3-.276.564 0 .24.092.416.276.528.184.104.416.176.696.216.288.032.588.068.9.108.36.04.684.116.972.228.296.104.528.264.696.48.176.208.264.496.264.864 0 .384-.108.708-.324.972-.208.272-.524.48-.948.624-.424.144-.952.216-1.584.216Zm.132-.828c.6 0 1.044-.076 1.332-.228a.726.726 0 0 0 .432-.696c0-.24-.096-.416-.288-.528a1.988 1.988 0 0 0-.708-.24c-.288-.04-.584-.072-.888-.096a4.216 4.216 0 0 1-.804-.156 1.53 1.53 0 0 0-.504.372c-.136.16-.204.372-.204.636 0 .336.124.576.372.72.256.144.676.216 1.26.216Zm0-4.98c.384 0 .712-.08.984-.24.28-.16.42-.452.42-.876 0-.432-.14-.728-.42-.888-.272-.16-.6-.24-.984-.24s-.712.08-.984.24c-.272.16-.408.456-.408.888 0 .424.136.716.408.876.272.16.6.24.984.24Zm4.894 3.288c-.32 0-.48-.088-.48-.264v-4.212c0-.328-.012-.6-.036-.816a5.344 5.344 0 0 0-.072-.492 2.19 2.19 0 0 1-.036-.204c0-.056.024-.1.072-.132a.52.52 0 0 1 .192-.084c.072-.024.144-.04.216-.048.072-.008.128-.012.168-.012.096 0 .168.044.216.132a.912.912 0 0 1 .12.324c.032.12.06.232.084.336.256-.28.548-.5.876-.66.328-.16.66-.24.996-.24.616 0 1.096.172 1.44.516.344.344.516.82.516 1.428v4.164c0 .176-.16.264-.48.264h-.048c-.32 0-.48-.088-.48-.264v-4.068c0-.368-.108-.652-.324-.852-.208-.208-.508-.312-.9-.312a1.66 1.66 0 0 0-.816.228 2.4 2.4 0 0 0-.696.612v4.392c0 .176-.16.264-.48.264h-.048Z"/>
    <circle cx="451.5" cy="282.5" r="12.5" fill="url(#i)" stroke="#fff" stroke-width="1.5"/>
    <circle cx="466.5" cy="282.5" r="12.5" fill="url(#j)" stroke="#fff" stroke-width="1.5"/>
    <circle cx="481.5" cy="282.5" r="12.5" fill="url(#k)" stroke="#fff" stroke-width="1.5"/>
  </g>
  <path fill="#E7E7E7" d="M44.006 85.072c-.512 0-.968-.06-1.368-.18-.4-.12-.696-.252-.888-.396-.152-.112-.228-.212-.228-.3 0-.064.024-.148.072-.252.056-.104.116-.196.18-.276.072-.08.128-.12.168-.12.024 0 .056.012.096.036.048.016.1.044.156.084.16.088.392.192.696.312.304.12.676.18 1.116.18.304 0 .572-.056.804-.168.24-.12.428-.288.564-.504.136-.216.204-.464.204-.744 0-.32-.088-.576-.264-.768a1.88 1.88 0 0 0-.672-.492 13.123 13.123 0 0 0-.876-.372 12.5 12.5 0 0 1-.756-.312 3.219 3.219 0 0 1-.672-.432c-.2-.168-.36-.38-.48-.636-.12-.264-.18-.592-.18-.984 0-.432.108-.816.324-1.152.224-.336.536-.596.936-.78.4-.192.868-.288 1.404-.288.168 0 .356.016.564.048.216.032.424.08.624.144.208.064.376.14.504.228.16.096.24.2.24.312a.636.636 0 0 1-.072.24 1.335 1.335 0 0 1-.168.276c-.056.08-.104.12-.144.12a.364.364 0 0 1-.132-.036 1.836 1.836 0 0 0-.192-.108 4.643 4.643 0 0 0-.492-.204 2.259 2.259 0 0 0-.756-.108c-.296 0-.564.052-.804.156a1.29 1.29 0 0 0-.552.456c-.128.2-.192.448-.192.744 0 .288.076.516.228.684.152.168.352.308.6.42.248.104.516.212.804.324.264.104.528.22.792.348.272.12.52.272.744.456.224.184.4.416.528.696.136.272.204.612.204 1.02 0 .36-.064.684-.192.972-.12.288-.3.532-.54.732-.232.2-.512.356-.84.468-.32.104-.684.156-1.092.156ZM48.038 85c-.16 0-.24-.12-.24-.36v-.144c0-.24.08-.36.24-.36h2.088v-6.468l-2.124.36c-.056 0-.104-.036-.144-.108a1.043 1.043 0 0 1-.072-.252 1.558 1.558 0 0 1-.024-.252c0-.12.072-.196.216-.228l2.784-.612c.088 0 .172.024.252.072.08.048.12.108.12.18v7.308h1.776c.16 0 .24.12.24.36v.144c0 .24-.08.36-.24.36h-4.872Zm8.666.072c-.48 0-.928-.148-1.344-.444-.408-.296-.74-.76-.996-1.392-.256-.632-.384-1.444-.384-2.436 0-1 .128-1.812.384-2.436.256-.632.588-1.096.996-1.392a2.274 2.274 0 0 1 2.7 0c.416.296.752.76 1.008 1.392.256.624.384 1.436.384 2.436 0 .992-.128 1.804-.384 2.436-.256.632-.592 1.096-1.008 1.392a2.291 2.291 0 0 1-1.356.444Zm0-.864c.288 0 .564-.108.828-.324.264-.224.48-.584.648-1.08.168-.496.252-1.164.252-2.004 0-.84-.084-1.508-.252-2.004-.168-.496-.384-.852-.648-1.068-.264-.224-.54-.336-.828-.336-.288 0-.564.112-.828.336-.256.216-.468.572-.636 1.068-.16.496-.24 1.164-.24 2.004 0 .84.08 1.508.24 2.004.168.496.38.856.636 1.08.264.216.54.324.828.324Zm30.154-1.548a.28.28 0 0 1-.264-.156l-2.136-3.72a4.552 4.552 0 0 1-.156-.264 8.28 8.28 0 0 0-.133-.276l-.047.012c.016.104.023.212.023.324v6.18c0 .176-.16.264-.48.264h-.084c-.32 0-.48-.088-.48-.264v-7.92c0-.176.16-.264.48-.264h.432c.144 0 .256.02.337.06.08.04.136.092.168.156l2.267 3.936a2.871 2.871 0 0 1 .312.756c.04-.136.096-.276.168-.42.08-.152.148-.276.204-.372l2.209-3.9a.452.452 0 0 1 .168-.156.76.76 0 0 1 .335-.06h.397c.32 0 .48.088.48.264v7.92c0 .176-.16.264-.48.264h-.085c-.32 0-.48-.088-.48-.264v-6.108l.024-.324-.047-.012a8.728 8.728 0 0 1-.144.276c-.04.088-.089.176-.145.264l-2.1 3.648a.28.28 0 0 1-.263.156h-.48ZM93.094 85c-.16 0-.24-.12-.24-.36v-.144c0-.24.08-.36.24-.36h2.088v-6.468l-2.124.36c-.056 0-.104-.036-.144-.108a1.043 1.043 0 0 1-.072-.252 1.558 1.558 0 0 1-.024-.252c0-.12.072-.196.216-.228l2.784-.612c.088 0 .172.024.252.072.08.048.12.108.12.18v7.308h1.776c.16 0 .24.12.24.36v.144c0 .24-.08.36-.24.36h-4.872Zm6.422 0c-.16 0-.24-.12-.24-.36v-.144c0-.24.08-.36.24-.36h2.088v-6.468l-2.124.36c-.056 0-.104-.036-.144-.108a1.043 1.043 0 0 1-.072-.252 1.558 1.558 0 0 1-.024-.252c0-.12.072-.196.216-.228l2.784-.612c.088 0 .172.024.252.072.08.048.12.108.12.18v7.308h1.776c.16 0 .24.12.24.36v.144c0 .24-.08.36-.24.36h-4.872Zm27.033.024c-.32 0-.48-.088-.48-.264v-7.248h-2.304c-.16 0-.24-.12-.24-.36v-.192c0-.24.08-.36.24-.36h5.628c.16 0 .24.12.24.36v.192c0 .24-.08.36-.24.36h-2.268v7.248c0 .176-.16.264-.48.264h-.096Zm4.282-.024c-.16 0-.24-.12-.24-.36v-.144c0-.24.08-.36.24-.36h2.088v-6.468l-2.124.36c-.056 0-.104-.036-.144-.108a1.043 1.043 0 0 1-.072-.252 1.558 1.558 0 0 1-.024-.252c0-.12.072-.196.216-.228l2.784-.612c.088 0 .172.024.252.072.08.048.12.108.12.18v7.308h1.776c.16 0 .24.12.24.36v.144c0 .24-.08.36-.24.36h-4.872Zm6.314 0c-.048 0-.092-.028-.132-.084a.98.98 0 0 1-.084-.204 1.352 1.352 0 0 1-.024-.24c0-.104.016-.172.048-.204l3.096-3.888c.256-.336.44-.6.552-.792a1.88 1.88 0 0 0 .216-.492c.032-.136.048-.288.048-.456 0-.384-.136-.688-.408-.912-.264-.224-.628-.336-1.092-.336-.36 0-.664.052-.912.156-.24.104-.432.208-.576.312-.136.096-.24.144-.312.144-.04 0-.092-.036-.156-.108a2.087 2.087 0 0 1-.156-.264.556.556 0 0 1-.072-.228c0-.128.076-.244.228-.348.152-.104.344-.196.576-.276.232-.08.468-.14.708-.18.248-.048.464-.072.648-.072.784 0 1.404.184 1.86.552.464.36.696.856.696 1.488 0 .232-.02.444-.06.636-.032.192-.1.392-.204.6-.104.208-.26.456-.468.744-.2.28-.464.624-.792 1.032-.328.408-.736.908-1.224 1.5l-.876 1.068h3.456c.16 0 .24.12.24.36v.132c0 .24-.08.36-.24.36h-4.584Zm23.888.024c-.12 0-.228-.012-.324-.036-.088-.032-.14-.084-.156-.156l-2.052-7.884a1.153 1.153 0 0 1-.024-.084.353.353 0 0 1-.012-.084c0-.136.172-.204.516-.204h.12c.12 0 .224.016.312.048.096.024.152.072.168.144l1.404 5.472c.048.168.092.352.132.552.04.192.076.376.108.552.032.176.052.324.06.444h.048c.032-.128.06-.256.084-.384l.096-.384.096-.384 1.452-5.856c.016-.08.068-.132.156-.156a.913.913 0 0 1 .312-.048h.192c.12 0 .224.016.312.048.088.024.14.076.156.156l1.38 5.46c.048.168.088.348.12.54.04.192.076.376.108.552.032.176.052.328.06.456h.048c.032-.128.06-.264.084-.408a15.968 15.968 0 0 1 .18-.732l1.452-5.88c.016-.072.068-.12.156-.144.096-.032.204-.048.324-.048h.072c.344 0 .516.068.516.204a.83.83 0 0 1-.036.168l-2.076 7.884c-.016.072-.072.124-.168.156a1.195 1.195 0 0 1-.312.036h-.492c-.12 0-.228-.012-.324-.036-.088-.032-.14-.084-.156-.156l-1.14-4.26c-.088-.328-.172-.7-.252-1.116-.072-.416-.12-.772-.144-1.068h-.048c-.024.288-.064.604-.12.948a5.963 5.963 0 0 1-.168.828l-1.248 4.668c-.016.072-.072.124-.168.156a1.195 1.195 0 0 1-.312.036h-.492Zm8.966-.024c-.16 0-.24-.12-.24-.36v-.144c0-.24.08-.36.24-.36h2.088v-6.468l-2.124.36c-.056 0-.104-.036-.144-.108a1.043 1.043 0 0 1-.072-.252 1.558 1.558 0 0 1-.024-.252c0-.12.072-.196.216-.228l2.784-.612c.088 0 .172.024.252.072.08.048.12.108.12.18v7.308h1.776c.16 0 .24.12.24.36v.144c0 .24-.08.36-.24.36h-4.872Zm8.414.072c-.352 0-.676-.024-.972-.072a5.205 5.205 0 0 1-.756-.156 2.158 2.158 0 0 1-.504-.228c-.12-.08-.18-.156-.18-.228 0-.08.024-.164.072-.252.056-.096.116-.176.18-.24.072-.072.128-.108.168-.108.08 0 .2.036.36.108.16.064.368.132.624.204.256.072.56.108.912.108.24 0 .492-.048.756-.144.272-.096.5-.264.684-.504.192-.24.288-.576.288-1.008 0-.616-.164-1.032-.492-1.248-.328-.224-.764-.336-1.308-.336h-.396c-.16 0-.24-.12-.24-.36v-.132c0-.24.08-.36.24-.36h.348c.416 0 .736-.092.96-.276.232-.184.396-.396.492-.636a1.86 1.86 0 0 0 .144-.66c0-.152-.04-.316-.12-.492-.072-.184-.212-.34-.42-.468-.2-.128-.496-.192-.888-.192-.36 0-.656.032-.888.096a2.482 2.482 0 0 0-.54.204.74.74 0 0 1-.3.096c-.04 0-.092-.04-.156-.12a1.482 1.482 0 0 1-.168-.264.636.636 0 0 1-.072-.24c0-.088.076-.172.228-.252.152-.08.34-.148.564-.204.232-.056.468-.1.708-.132.248-.032.464-.048.648-.048.712 0 1.292.176 1.74.528.456.352.684.884.684 1.596 0 .416-.128.764-.384 1.044-.248.28-.532.484-.852.612v.048c.24.064.476.192.708.384.232.184.424.428.576.732.152.304.228.668.228 1.092 0 .464-.084.856-.252 1.176-.16.32-.376.58-.648.78a2.708 2.708 0 0 1-.864.42 3.352 3.352 0 0 1-.912.132Zm22.136-.048c-.32 0-.48-.088-.48-.264v-7.248h-2.304c-.16 0-.24-.12-.24-.36v-.192c0-.24.08-.36.24-.36h5.628c.16 0 .24.12.24.36v.192c0 .24-.08.36-.24.36h-2.268v7.248c0 .176-.16.264-.48.264h-.096Zm4.282-.024c-.16 0-.24-.12-.24-.36v-.144c0-.24.08-.36.24-.36h2.088v-6.468l-2.124.36c-.056 0-.104-.036-.144-.108a1.043 1.043 0 0 1-.072-.252 1.558 1.558 0 0 1-.024-.252c0-.12.072-.196.216-.228l2.784-.612c.088 0 .172.024.252.072.08.048.12.108.12.18v7.308h1.776c.16 0 .24.12.24.36v.144c0 .24-.08.36-.24.36h-4.872Zm9.974.024c-.24 0-.36-.088-.36-.264v-1.764h-3.648c-.04 0-.084-.036-.132-.108a1.052 1.052 0 0 1-.12-.252 1.058 1.058 0 0 1-.036-.252c0-.072.008-.116.024-.132l3.948-5.508a.326.326 0 0 1 .168-.12.642.642 0 0 1 .24-.048h.192c.24 0 .36.088.36.264v5.292h.804c.16 0 .24.12.24.36v.144c0 .24-.08.36-.24.36h-.804v1.764c0 .176-.12.264-.36.264h-.276Zm-3.108-2.892h2.748v-2.976c0-.136.004-.292.012-.468.008-.176.024-.328.048-.456l-.048-.024-2.76 3.924Zm31.008 2.892c-.32 0-.48-.088-.48-.264v-7.8c0-.24.12-.36.36-.36h3.78c.16 0 .24.12.24.36v.192c0 .24-.08.36-.24.36h-3.084v2.976h2.868c.16 0 .24.12.24.36v.192c0 .24-.08.36-.24.36h-2.868v3.36c0 .176-.16.264-.48.264h-.096Zm5.351-.024c-.16 0-.24-.12-.24-.36v-.144c0-.24.08-.36.24-.36h2.088v-6.468l-2.124.36c-.056 0-.104-.036-.144-.108a1.043 1.043 0 0 1-.072-.252 1.558 1.558 0 0 1-.024-.252c0-.12.072-.196.216-.228l2.784-.612c.088 0 .172.024.252.072.08.048.12.108.12.18v7.308h1.776c.16 0 .24.12.24.36v.144c0 .24-.08.36-.24.36h-4.872Zm8.27.072c-.44 0-.832-.04-1.176-.12-.336-.08-.6-.176-.792-.288-.184-.112-.276-.216-.276-.312 0-.08.024-.164.072-.252.056-.096.116-.176.18-.24.072-.072.128-.108.168-.108.08 0 .192.04.336.12.152.072.348.148.588.228.248.072.544.108.888.108.328 0 .632-.064.912-.192s.508-.324.684-.588c.176-.264.264-.592.264-.984 0-.536-.184-.944-.552-1.224-.368-.28-.904-.42-1.608-.42h-1.02c-.128 0-.216-.028-.264-.084-.048-.056-.072-.148-.072-.276l.204-3.48c.008-.128.04-.22.096-.276.064-.056.16-.084.288-.084h3.192c.16 0 .24.12.24.36v.144c0 .24-.08.36-.24.36h-2.604l-.156 2.472h.624c.328 0 .66.04.996.12.336.08.648.216.936.408.296.184.532.44.708.768.176.32.264.724.264 1.212 0 .52-.084.952-.252 1.296a2.102 2.102 0 0 1-.684.804c-.28.192-.592.328-.936.408-.336.08-.672.12-1.008.12Zm26.68 0c-.512 0-.968-.06-1.368-.18-.4-.12-.696-.252-.888-.396-.152-.112-.228-.212-.228-.3 0-.064.024-.148.072-.252.056-.104.116-.196.18-.276.072-.08.128-.12.168-.12.024 0 .056.012.096.036.048.016.1.044.156.084.16.088.392.192.696.312.304.12.676.18 1.116.18.304 0 .572-.056.804-.168.24-.12.428-.288.564-.504.136-.216.204-.464.204-.744 0-.32-.088-.576-.264-.768a1.88 1.88 0 0 0-.672-.492 13.123 13.123 0 0 0-.876-.372 12.5 12.5 0 0 1-.756-.312 3.219 3.219 0 0 1-.672-.432c-.2-.168-.36-.38-.48-.636-.12-.264-.18-.592-.18-.984 0-.432.108-.816.324-1.152.224-.336.536-.596.936-.78.4-.192.868-.288 1.404-.288.168 0 .356.016.564.048.216.032.424.08.624.144.208.064.376.14.504.228.16.096.24.2.24.312a.636.636 0 0 1-.072.24 1.335 1.335 0 0 1-.168.276c-.056.08-.104.12-.144.12a.364.364 0 0 1-.132-.036 1.836 1.836 0 0 0-.192-.108 4.643 4.643 0 0 0-.492-.204 2.259 2.259 0 0 0-.756-.108c-.296 0-.564.052-.804.156a1.29 1.29 0 0 0-.552.456c-.128.2-.192.448-.192.744 0 .288.076.516.228.684.152.168.352.308.6.42.248.104.516.212.804.324.264.104.528.22.792.348.272.12.52.272.744.456.224.184.4.416.528.696.136.272.204.612.204 1.02 0 .36-.064.684-.192.972-.12.288-.3.532-.54.732-.232.2-.512.356-.84.468-.32.104-.684.156-1.092.156Zm4.032-.072c-.16 0-.24-.12-.24-.36v-.144c0-.24.08-.36.24-.36h2.088v-6.468l-2.124.36c-.056 0-.104-.036-.144-.108a1.043 1.043 0 0 1-.072-.252 1.558 1.558 0 0 1-.024-.252c0-.12.072-.196.216-.228l2.784-.612c.088 0 .172.024.252.072.08.048.12.108.12.18v7.308h1.776c.16 0 .24.12.24.36v.144c0 .24-.08.36-.24.36h-4.872Zm8.63.06c-.424 0-.796-.068-1.116-.204a2.12 2.12 0 0 1-.804-.588 2.86 2.86 0 0 1-.48-.948 4.825 4.825 0 0 1-.156-1.284c0-.576.076-1.112.228-1.608.152-.496.352-.944.6-1.344.248-.408.52-.768.816-1.08.296-.312.592-.572.888-.78.296-.216.564-.376.804-.48.24-.112.428-.168.564-.168.088 0 .16.044.216.132.056.08.1.172.132.276.032.104.048.18.048.228 0 .016-.008.04-.024.072-.008.024-.032.044-.072.06-.816.336-1.468.784-1.956 1.344a4.876 4.876 0 0 0-1.008 1.848c.184-.112.408-.204.672-.276.264-.08.58-.12.948-.12.32 0 .616.056.888.168.28.112.524.276.732.492.208.208.372.464.492.768.12.296.18.628.18.996 0 .384-.068.728-.204 1.032a2.283 2.283 0 0 1-.552.792 2.475 2.475 0 0 1-.828.504 2.962 2.962 0 0 1-1.008.168Zm.06-.864c.216 0 .44-.056.672-.168.232-.112.428-.284.588-.516.168-.232.252-.532.252-.9 0-.392-.076-.704-.228-.936a1.302 1.302 0 0 0-.588-.516 1.881 1.881 0 0 0-.756-.156c-.32 0-.608.044-.864.132-.256.088-.468.18-.636.276-.008.12-.02.244-.036.372-.008.12-.012.236-.012.348 0 .56.08.988.24 1.284.168.296.376.5.624.612.248.112.496.168.744.168Zm27.278.876c-.512 0-.968-.06-1.368-.18-.4-.12-.696-.252-.888-.396-.152-.112-.228-.212-.228-.3 0-.064.024-.148.072-.252.056-.104.116-.196.18-.276.072-.08.128-.12.168-.12.024 0 .056.012.096.036.048.016.1.044.156.084.16.088.392.192.696.312.304.12.676.18 1.116.18.304 0 .572-.056.804-.168.24-.12.428-.288.564-.504.136-.216.204-.464.204-.744 0-.32-.088-.576-.264-.768a1.88 1.88 0 0 0-.672-.492 13.123 13.123 0 0 0-.876-.372 12.5 12.5 0 0 1-.756-.312 3.219 3.219 0 0 1-.672-.432c-.2-.168-.36-.38-.48-.636-.12-.264-.18-.592-.18-.984 0-.432.108-.816.324-1.152.224-.336.536-.596.936-.78.4-.192.868-.288 1.404-.288.168 0 .356.016.564.048.216.032.424.08.624.144.208.064.376.14.504.228.16.096.24.2.24.312a.636.636 0 0 1-.072.24 1.335 1.335 0 0 1-.168.276c-.056.08-.104.12-.144.12a.364.364 0 0 1-.132-.036 1.836 1.836 0 0 0-.192-.108 4.643 4.643 0 0 0-.492-.204 2.259 2.259 0 0 0-.756-.108c-.296 0-.564.052-.804.156a1.29 1.29 0 0 0-.552.456c-.128.2-.192.448-.192.744 0 .288.076.516.228.684.152.168.352.308.6.42.248.104.516.212.804.324.264.104.528.22.792.348.272.12.52.272.744.456.224.184.4.416.528.696.136.272.204.612.204 1.02 0 .36-.064.684-.192.972-.12.288-.3.532-.54.732-.232.2-.512.356-.84.468-.32.104-.684.156-1.092.156Zm4.032-.072c-.16 0-.24-.12-.24-.36v-.144c0-.24.08-.36.24-.36h2.088v-6.468l-2.124.36c-.056 0-.104-.036-.144-.108a1.043 1.043 0 0 1-.072-.252 1.558 1.558 0 0 1-.024-.252c0-.12.072-.196.216-.228l2.784-.612c.088 0 .172.024.252.072.08.048.12.108.12.18v7.308h1.776c.16 0 .24.12.24.36v.144c0 .24-.08.36-.24.36h-4.872Zm7.142.024c-.344 0-.516-.072-.516-.216 0-.016.004-.036.012-.06a.267.267 0 0 0 .036-.084l3.468-7.2h-3.78c-.16 0-.24-.12-.24-.36v-.144c0-.24.08-.36.24-.36h4.74c.032 0 .064.036.096.108.04.064.072.144.096.24a.84.84 0 0 1 .048.264.42.42 0 0 1-.024.132l-3.552 7.488a.378.378 0 0 1-.18.144.813.813 0 0 1-.3.048h-.144Zm29.677-2.364a.28.28 0 0 1-.264-.156l-2.136-3.72a4.552 4.552 0 0 1-.156-.264 8.28 8.28 0 0 0-.132-.276l-.048.012c.016.104.024.212.024.324v6.18c0 .176-.16.264-.48.264h-.084c-.32 0-.48-.088-.48-.264v-7.92c0-.176.16-.264.48-.264h.432c.144 0 .256.02.336.06.08.04.136.092.168.156l2.268 3.936a2.871 2.871 0 0 1 .312.756c.04-.136.096-.276.168-.42.08-.152.148-.276.204-.372l2.208-3.9a.452.452 0 0 1 .168-.156c.08-.04.192-.06.336-.06h.396c.32 0 .48.088.48.264v7.92c0 .176-.16.264-.48.264h-.084c-.32 0-.48-.088-.48-.264v-6.108l.024-.324-.048-.012a8.728 8.728 0 0 1-.144.276c-.04.088-.088.176-.144.264l-2.1 3.648a.28.28 0 0 1-.264.156h-.48Zm6.238 2.34c-.16 0-.24-.12-.24-.36v-.144c0-.24.08-.36.24-.36h2.088v-6.468l-2.124.36c-.056 0-.104-.036-.144-.108a1.043 1.043 0 0 1-.072-.252 1.558 1.558 0 0 1-.024-.252c0-.12.072-.196.216-.228l2.784-.612c.088 0 .172.024.252.072.08.048.12.108.12.18v7.308h1.776c.16 0 .24.12.24.36v.144c0 .24-.08.36-.24.36h-4.872Zm8.666.072c-.48 0-.916-.088-1.308-.264a2.104 2.104 0 0 1-.936-.816c-.232-.376-.348-.848-.348-1.416 0-.424.06-.772.18-1.044s.28-.492.48-.66c.208-.176.432-.32.672-.432-.28-.168-.516-.4-.708-.696-.192-.304-.288-.684-.288-1.14 0-.456.1-.836.3-1.14.208-.312.484-.544.828-.696a2.75 2.75 0 0 1 1.152-.24c.424 0 .808.08 1.152.24.352.152.632.384.84.696.208.304.312.684.312 1.14 0 .488-.112.876-.336 1.164-.224.288-.5.508-.828.66.264.112.504.252.72.42.216.168.388.388.516.66.136.272.204.628.204 1.068 0 .432-.068.804-.204 1.116a2.153 2.153 0 0 1-.564.78c-.232.2-.508.352-.828.456a3.411 3.411 0 0 1-1.008.144Zm0-.864c.288 0 .548-.06.78-.18.24-.12.432-.3.576-.54.144-.248.216-.552.216-.912 0-.304-.06-.548-.18-.732a1.415 1.415 0 0 0-.48-.468 3.018 3.018 0 0 0-.648-.3c-.24-.088-.48-.18-.72-.276-.304.176-.564.4-.78.672-.216.272-.324.64-.324 1.104 0 .544.152.952.456 1.224.312.272.68.408 1.104.408Zm.288-4.104c.288-.168.532-.372.732-.612.2-.24.3-.536.3-.888 0-.424-.128-.732-.384-.924a1.477 1.477 0 0 0-.912-.288c-.352 0-.652.096-.9.288-.248.192-.372.5-.372.924 0 .32.072.572.216.756.144.184.332.332.564.444.232.104.484.204.756.3Zm22.5 4.92c-.32 0-.48-.088-.48-.264v-7.248h-2.304c-.16 0-.24-.12-.24-.36v-.192c0-.24.08-.36.24-.36h5.628c.16 0 .24.12.24.36v.192c0 .24-.08.36-.24.36h-2.268v7.248c0 .176-.16.264-.48.264h-.096Zm4.282-.024c-.16 0-.24-.12-.24-.36v-.144c0-.24.08-.36.24-.36h2.088v-6.468l-2.124.36c-.056 0-.104-.036-.144-.108a1.043 1.043 0 0 1-.072-.252 1.558 1.558 0 0 1-.024-.252c0-.12.072-.196.216-.228l2.784-.612c.088 0 .172.024.252.072.08.048.12.108.12.18v7.308h1.776c.16 0 .24.12.24.36v.144c0 .24-.08.36-.24.36h-4.872Zm7.37.024c-.08 0-.152-.04-.216-.12a1.18 1.18 0 0 1-.132-.288.883.883 0 0 1-.048-.228c0-.016.004-.036.012-.06a.152.152 0 0 1 .084-.072c.816-.336 1.464-.784 1.944-1.344a4.798 4.798 0 0 0 1.02-1.848 3.34 3.34 0 0 1-.672.276c-.264.08-.58.12-.948.12a2.4 2.4 0 0 1-.9-.168 2.185 2.185 0 0 1-.72-.48 2.386 2.386 0 0 1-.492-.768c-.12-.304-.18-.64-.18-1.008 0-.384.064-.728.192-1.032a2.38 2.38 0 0 1 1.38-1.284c.32-.12.66-.18 1.02-.18.424 0 .796.068 1.116.204.32.136.584.336.792.6.216.256.376.572.48.948.112.368.168.792.168 1.272 0 .576-.076 1.112-.228 1.608a5.96 5.96 0 0 1-.6 1.356c-.248.4-.52.756-.816 1.068a6.59 6.59 0 0 1-.888.792 5.418 5.418 0 0 1-.804.48c-.24.104-.428.156-.564.156Zm1.344-4.428c.32 0 .608-.044.864-.132.256-.088.468-.18.636-.276a5.483 5.483 0 0 0 .048-.72c0-.56-.084-.988-.252-1.284-.16-.296-.364-.5-.612-.612a1.74 1.74 0 0 0-.744-.168 1.62 1.62 0 0 0-.684.168 1.507 1.507 0 0 0-.588.516c-.16.232-.24.532-.24.9 0 .392.076.708.228.948.152.232.348.4.588.504.24.104.492.156.756.156Zm26.488 4.428c-.12 0-.228-.012-.324-.036-.088-.032-.14-.084-.156-.156l-2.052-7.884a1.153 1.153 0 0 1-.024-.084.353.353 0 0 1-.012-.084c0-.136.172-.204.516-.204h.12c.12 0 .224.016.312.048.096.024.152.072.168.144l1.404 5.472c.048.168.092.352.132.552.04.192.076.376.108.552.032.176.052.324.06.444h.048c.032-.128.06-.256.084-.384l.096-.384.096-.384 1.452-5.856c.016-.08.068-.132.156-.156a.913.913 0 0 1 .312-.048h.192c.12 0 .224.016.312.048.088.024.14.076.156.156l1.38 5.46c.048.168.088.348.12.54.04.192.076.376.108.552.032.176.052.328.06.456h.048c.032-.128.06-.264.084-.408a15.968 15.968 0 0 1 .18-.732l1.452-5.88c.016-.072.068-.12.156-.144.096-.032.204-.048.324-.048h.072c.344 0 .516.068.516.204a.83.83 0 0 1-.036.168l-2.076 7.884c-.016.072-.072.124-.168.156a1.195 1.195 0 0 1-.312.036h-.492c-.12 0-.228-.012-.324-.036-.088-.032-.14-.084-.156-.156l-1.14-4.26c-.088-.328-.172-.7-.252-1.116-.072-.416-.12-.772-.144-1.068h-.048c-.024.288-.064.604-.12.948a5.963 5.963 0 0 1-.168.828l-1.248 4.668c-.016.072-.072.124-.168.156a1.195 1.195 0 0 1-.312.036h-.492Zm8.858-.024c-.048 0-.092-.028-.132-.084a.98.98 0 0 1-.084-.204 1.352 1.352 0 0 1-.024-.24c0-.104.016-.172.048-.204l3.096-3.888c.256-.336.44-.6.552-.792a1.88 1.88 0 0 0 .216-.492c.032-.136.048-.288.048-.456 0-.384-.136-.688-.408-.912-.264-.224-.628-.336-1.092-.336-.36 0-.664.052-.912.156-.24.104-.432.208-.576.312-.136.096-.24.144-.312.144-.04 0-.092-.036-.156-.108a2.087 2.087 0 0 1-.156-.264.556.556 0 0 1-.072-.228c0-.128.076-.244.228-.348.152-.104.344-.196.576-.276.232-.08.468-.14.708-.18.248-.048.464-.072.648-.072.784 0 1.404.184 1.86.552.464.36.696.856.696 1.488 0 .232-.02.444-.06.636-.032.192-.1.392-.204.6-.104.208-.26.456-.468.744-.2.28-.464.624-.792 1.032-.328.408-.736.908-1.224 1.5l-.876 1.068h3.456c.16 0 .24.12.24.36v.132c0 .24-.08.36-.24.36h-4.584Zm8.774.072c-.48 0-.928-.148-1.344-.444-.408-.296-.74-.76-.996-1.392-.256-.632-.384-1.444-.384-2.436 0-1 .128-1.812.384-2.436.256-.632.588-1.096.996-1.392a2.274 2.274 0 0 1 2.7 0c.416.296.752.76 1.008 1.392.256.624.384 1.436.384 2.436 0 .992-.128 1.804-.384 2.436-.256.632-.592 1.096-1.008 1.392a2.291 2.291 0 0 1-1.356.444Zm0-.864c.288 0 .564-.108.828-.324.264-.224.48-.584.648-1.08.168-.496.252-1.164.252-2.004 0-.84-.084-1.508-.252-2.004-.168-.496-.384-.852-.648-1.068-.264-.224-.54-.336-.828-.336-.288 0-.564.112-.828.336-.256.216-.468.572-.636 1.068-.16.496-.24 1.164-.24 2.004 0 .84.08 1.508.24 2.004.168.496.38.856.636 1.08.264.216.54.324.828.324Zm24.884.816c-.32 0-.48-.088-.48-.264v-7.248h-2.304c-.16 0-.24-.12-.24-.36v-.192c0-.24.08-.36.24-.36h5.628c.16 0 .24.12.24.36v.192c0 .24-.08.36-.24.36h-2.268v7.248c0 .176-.16.264-.48.264h-.096Zm4.174-.024c-.048 0-.092-.028-.132-.084a.98.98 0 0 1-.084-.204 1.352 1.352 0 0 1-.024-.24c0-.104.016-.172.048-.204l3.096-3.888c.256-.336.44-.6.552-.792a1.88 1.88 0 0 0 .216-.492c.032-.136.048-.288.048-.456 0-.384-.136-.688-.408-.912-.264-.224-.628-.336-1.092-.336-.36 0-.664.052-.912.156-.24.104-.432.208-.576.312-.136.096-.24.144-.312.144-.04 0-.092-.036-.156-.108a2.087 2.087 0 0 1-.156-.264.556.556 0 0 1-.072-.228c0-.128.076-.244.228-.348.152-.104.344-.196.576-.276.232-.08.468-.14.708-.18.248-.048.464-.072.648-.072.784 0 1.404.184 1.86.552.464.36.696.856.696 1.488 0 .232-.02.444-.06.636-.032.192-.1.392-.204.6-.104.208-.26.456-.468.744-.2.28-.464.624-.792 1.032-.328.408-.736.908-1.224 1.5l-.876 1.068h3.456c.16 0 .24.12.24.36v.132c0 .24-.08.36-.24.36h-4.584Zm6.53 0c-.16 0-.24-.12-.24-.36v-.144c0-.24.08-.36.24-.36h2.088v-6.468l-2.124.36c-.056 0-.104-.036-.144-.108a1.043 1.043 0 0 1-.072-.252 1.558 1.558 0 0 1-.024-.252c0-.12.072-.196.216-.228l2.784-.612c.088 0 .172.024.252.072.08.048.12.108.12.18v7.308h1.776c.16 0 .24.12.24.36v.144c0 .24-.08.36-.24.36h-4.872Z"/>
  <path fill="#202020" d="M27.336 28.808v-2.16h12.792v2.16H34.92V44h-2.352V28.808h-5.232Zm15.877.672a1.495 1.495 0 0 1-1.488-1.488c0-.84.672-1.488 1.488-1.488a1.48 1.48 0 0 1 1.488 1.488c0 .816-.672 1.488-1.488 1.488ZM42.109 44V32.264h2.256V44h-2.256Zm7.787 0H47.64V32.264h2.016l.216 1.536c.6-1.104 1.848-1.872 3.504-1.872 1.824 0 3.12.912 3.72 2.376.552-1.464 1.968-2.376 3.792-2.376 2.688 0 4.32 1.68 4.32 4.392V44H63v-7.128c0-1.848-1.032-2.904-2.616-2.904-1.704 0-2.832 1.2-2.832 3.072V44H55.32v-7.152c0-1.848-1.008-2.856-2.592-2.856-1.704 0-2.832 1.176-2.832 3.048V44Zm23.503.288c-3.456 0-5.832-2.496-5.832-6.144 0-3.672 2.328-6.216 5.736-6.216 3.336 0 5.52 2.304 5.52 5.784v.84l-9.072.024c.168 2.472 1.464 3.84 3.696 3.84 1.752 0 2.904-.72 3.288-2.064h2.112c-.576 2.52-2.544 3.936-5.448 3.936Zm-.096-10.464c-1.968 0-3.216 1.176-3.504 3.24h6.768c0-1.944-1.272-3.24-3.264-3.24ZM83.647 44H81.39V26.336h2.256V44Zm4.425-14.52a1.495 1.495 0 0 1-1.488-1.488c0-.84.672-1.488 1.488-1.488a1.48 1.48 0 0 1 1.488 1.488c0 .816-.672 1.488-1.488 1.488ZM86.968 44V32.264h2.256V44h-2.256Zm7.787 0H92.5V32.264h2.04l.24 1.8c.744-1.344 2.232-2.136 3.888-2.136 3.096 0 4.512 1.896 4.512 4.896V44h-2.256v-6.672c0-2.376-1.104-3.336-2.832-3.336-2.112 0-3.336 1.512-3.336 3.792V44Zm16.613.288c-3.456 0-5.832-2.496-5.832-6.144 0-3.672 2.328-6.216 5.736-6.216 3.336 0 5.52 2.304 5.52 5.784v.84l-9.072.024c.168 2.472 1.464 3.84 3.696 3.84 1.752 0 2.904-.72 3.288-2.064h2.112c-.576 2.52-2.544 3.936-5.448 3.936Zm-.096-10.464c-1.968 0-3.216 1.176-3.504 3.24h6.768c0-1.944-1.272-3.24-3.264-3.24Z"/>
  <circle cx="326" cy="33" r="7" fill="#2E63EB"/>
  <path fill="#202020" d="M340.524 37c-.24 0-.36-.12-.36-.36v-7.68c0-.24.12-.36.36-.36h2.424c.688 0 1.312.136 1.872.408.56.264 1.004.704 1.332 1.32.336.608.504 1.432.504 2.472 0 .776-.096 1.436-.288 1.98-.192.536-.456.968-.792 1.296-.336.32-.728.556-1.176.708a4.72 4.72 0 0 1-1.452.216h-2.424Zm.696-.912h1.644c.504 0 .96-.108 1.368-.324.408-.216.732-.564.972-1.044.24-.48.36-1.12.36-1.92 0-.8-.12-1.44-.36-1.92s-.564-.828-.972-1.044a2.878 2.878 0 0 0-1.368-.324h-1.644v6.576Zm9.568.984c-.904 0-1.596-.272-2.076-.816-.472-.544-.708-1.332-.708-2.364 0-1.04.24-1.84.72-2.4.48-.56 1.168-.84 2.064-.84.88 0 1.552.28 2.016.84.472.552.708 1.352.708 2.4 0 1.04-.232 1.832-.696 2.376-.456.536-1.132.804-2.028.804Zm-.036-.864c.592 0 1.024-.188 1.296-.564.28-.384.42-.976.42-1.776s-.14-1.392-.42-1.776c-.272-.384-.704-.576-1.296-.576-.584 0-1.012.192-1.284.576-.272.376-.408.968-.408 1.776 0 .8.136 1.392.408 1.776.272.376.7.564 1.284.564Zm4.936.816c-.32 0-.48-.088-.48-.264v-4.212c0-.328-.012-.6-.036-.816a5.344 5.344 0 0 0-.072-.492 2.19 2.19 0 0 1-.036-.204c0-.056.024-.1.072-.132a.52.52 0 0 1 .192-.084c.072-.024.144-.04.216-.048.072-.008.128-.012.168-.012.096 0 .168.044.216.132a.912.912 0 0 1 .12.324c.032.12.06.232.084.336.256-.28.548-.5.876-.66.328-.16.66-.24.996-.24.616 0 1.096.172 1.44.516.344.344.516.82.516 1.428v4.164c0 .176-.16.264-.48.264h-.048c-.32 0-.48-.088-.48-.264v-4.068c0-.368-.108-.652-.324-.852-.208-.208-.508-.312-.9-.312a1.66 1.66 0 0 0-.816.228 2.4 2.4 0 0 0-.696.612v4.392c0 .176-.16.264-.48.264h-.048Zm8.767.048c-.992 0-1.732-.26-2.22-.78-.48-.52-.72-1.316-.72-2.388 0-.712.104-1.308.312-1.788.216-.48.532-.844.948-1.092.416-.248.928-.372 1.536-.372.552 0 1.008.12 1.368.36.368.24.644.592.828 1.056.184.464.276 1.036.276 1.716a.41.41 0 0 1-.072.192.923.923 0 0 1-.156.204c-.064.064-.12.096-.168.096h-3.792c.048.664.22 1.152.516 1.464.296.312.74.468 1.332.468.352 0 .648-.04.888-.12a4.01 4.01 0 0 0 .588-.252c.144-.088.236-.132.276-.132.056 0 .116.04.18.12.064.08.12.168.168.264a.553.553 0 0 1 .072.216c0 .072-.056.152-.168.24a1.92 1.92 0 0 1-.468.252c-.192.08-.42.148-.684.204a4.566 4.566 0 0 1-.84.072Zm-1.86-3.66h3.12c0-.632-.12-1.104-.36-1.416-.24-.32-.6-.48-1.08-.48-.52 0-.92.16-1.2.48-.28.312-.44.784-.48 1.416Zm9.112 3.612c-.32 0-.48-.088-.48-.264v-7.8c0-.24.12-.36.36-.36h2.436c.256 0 .536.028.84.084.312.056.604.168.876.336.28.16.508.396.684.708.184.312.276.72.276 1.224 0 .44-.068.808-.204 1.104a2.133 2.133 0 0 1-.516.72 2.44 2.44 0 0 1-.672.408c-.232.096-.452.16-.66.192a3.472 3.472 0 0 1-.504.048h-1.86v3.336c0 .176-.16.264-.48.264h-.096Zm.576-4.512h1.872c.12 0 .26-.02.42-.06.168-.04.328-.116.48-.228.16-.112.292-.268.396-.468.104-.208.156-.476.156-.804 0-.4-.088-.7-.264-.9a1.227 1.227 0 0 0-.624-.42 2.375 2.375 0 0 0-.732-.12h-1.704v3Zm6.328 4.512c-.32 0-.48-.088-.48-.264v-4.212c0-.328-.012-.6-.036-.816a5.344 5.344 0 0 0-.072-.492 2.19 2.19 0 0 1-.036-.204c0-.056.024-.1.072-.132a.52.52 0 0 1 .192-.084c.072-.024.144-.04.216-.048.072-.008.128-.012.168-.012.096 0 .168.044.216.132a.912.912 0 0 1 .12.324c.032.12.06.232.084.336.208-.288.428-.508.66-.66.24-.16.484-.24.732-.24.232 0 .404.04.516.12.12.072.18.188.18.348 0 .072-.012.16-.036.264a.93.93 0 0 1-.084.276c-.032.072-.072.108-.12.108-.08 0-.16-.02-.24-.06-.072-.048-.212-.072-.42-.072a.947.947 0 0 0-.564.18c-.168.12-.3.244-.396.372l-.144.18v4.392c0 .176-.16.264-.48.264h-.048Zm6.044.048c-.904 0-1.596-.272-2.076-.816-.472-.544-.708-1.332-.708-2.364 0-1.04.24-1.84.72-2.4.48-.56 1.168-.84 2.064-.84.88 0 1.552.28 2.016.84.472.552.708 1.352.708 2.4 0 1.04-.232 1.832-.696 2.376-.456.536-1.132.804-2.028.804Zm-.036-.864c.592 0 1.024-.188 1.296-.564.28-.384.42-.976.42-1.776s-.14-1.392-.42-1.776c-.272-.384-.704-.576-1.296-.576-.584 0-1.012.192-1.284.576-.272.376-.408.968-.408 1.776 0 .8.136 1.392.408 1.776.272.376.7.564 1.284.564Zm5.8.9c-.36 0-.684-.044-.972-.132a2.38 2.38 0 0 1-.684-.312c-.168-.12-.252-.224-.252-.312 0-.048.024-.12.072-.216.048-.096.104-.184.168-.264.064-.08.124-.12.18-.12.032 0 .104.04.216.12.112.08.268.16.468.24.208.08.452.12.732.12.784 0 1.176-.296 1.176-.888 0-.32-.116-.552-.348-.696a3.386 3.386 0 0 0-.852-.396 6.534 6.534 0 0 1-.804-.336 1.693 1.693 0 0 1-.624-.564c-.16-.24-.24-.564-.24-.972 0-.336.084-.636.252-.9.176-.264.412-.468.708-.612a2.276 2.276 0 0 1 1.032-.228c.272 0 .528.024.768.072.24.048.436.112.588.192.152.08.228.164.228.252a.644.644 0 0 1-.072.252 1.28 1.28 0 0 1-.144.276c-.056.08-.112.12-.168.12-.032 0-.14-.052-.324-.156-.184-.104-.44-.156-.768-.156-.296 0-.548.072-.756.216a.66.66 0 0 0-.312.588c0 .224.064.404.192.54.128.128.376.252.744.372s.696.264.984.432c.288.16.516.368.684.624.168.248.252.572.252.972 0 .36-.096.68-.288.96-.184.28-.436.504-.756.672-.32.16-.68.24-1.08.24Zm6.181-.036c-.992 0-1.732-.26-2.22-.78-.48-.52-.72-1.316-.72-2.388 0-.712.104-1.308.312-1.788.216-.48.532-.844.948-1.092.416-.248.928-.372 1.536-.372.552 0 1.008.12 1.368.36.368.24.644.592.828 1.056.184.464.276 1.036.276 1.716a.41.41 0 0 1-.072.192.923.923 0 0 1-.156.204c-.064.064-.12.096-.168.096h-3.792c.048.664.22 1.152.516 1.464.296.312.74.468 1.332.468.352 0 .648-.04.888-.12a4.01 4.01 0 0 0 .588-.252c.144-.088.236-.132.276-.132.056 0 .116.04.18.12.064.08.12.168.168.264a.553.553 0 0 1 .072.216c0 .072-.056.152-.168.24a1.92 1.92 0 0 1-.468.252c-.192.08-.42.148-.684.204a4.566 4.566 0 0 1-.84.072Zm-1.86-3.66h3.12c0-.632-.12-1.104-.36-1.416-.24-.32-.6-.48-1.08-.48-.52 0-.92.16-1.2.48-.28.312-.44.784-.48 1.416Zm7.105 3.696c-.36 0-.684-.044-.972-.132a2.38 2.38 0 0 1-.684-.312c-.168-.12-.252-.224-.252-.312 0-.048.024-.12.072-.216.048-.096.104-.184.168-.264.064-.08.124-.12.18-.12.032 0 .104.04.216.12.112.08.268.16.468.24.208.08.452.12.732.12.784 0 1.176-.296 1.176-.888 0-.32-.116-.552-.348-.696a3.386 3.386 0 0 0-.852-.396 6.534 6.534 0 0 1-.804-.336 1.693 1.693 0 0 1-.624-.564c-.16-.24-.24-.564-.24-.972 0-.336.084-.636.252-.9.176-.264.412-.468.708-.612a2.276 2.276 0 0 1 1.032-.228c.272 0 .528.024.768.072.24.048.436.112.588.192.152.08.228.164.228.252a.644.644 0 0 1-.072.252 1.28 1.28 0 0 1-.144.276c-.056.08-.112.12-.168.12-.032 0-.14-.052-.324-.156-.184-.104-.44-.156-.768-.156-.296 0-.548.072-.756.216a.66.66 0 0 0-.312.588c0 .224.064.404.192.54.128.128.376.252.744.372s.696.264.984.432c.288.16.516.368.684.624.168.248.252.572.252.972 0 .36-.096.68-.288.96-.184.28-.436.504-.756.672-.32.16-.68.24-1.08.24Z"/>
  <circle cx="432" cy="33" r="7" stroke="#C2C2C2"/>
  <path fill="#202020" d="M449.38 37.072c-1.2 0-2.116-.364-2.748-1.092-.632-.736-.948-1.804-.948-3.204 0-1.408.316-2.468.948-3.18.632-.712 1.548-1.068 2.748-1.068 1.208 0 2.128.356 2.76 1.068.632.712.948 1.772.948 3.18 0 1.4-.316 2.468-.948 3.204-.632.728-1.552 1.092-2.76 1.092Zm0-.912c.848 0 1.496-.288 1.944-.864.448-.576.672-1.416.672-2.52s-.224-1.936-.672-2.496c-.448-.56-1.096-.84-1.944-.84-.848 0-1.496.28-1.944.84-.44.56-.66 1.392-.66 2.496s.22 1.944.66 2.52c.448.576 1.096.864 1.944.864Zm5.909.864c-.32 0-.48-.088-.48-.264v-4.212c0-.328-.012-.6-.036-.816a5.344 5.344 0 0 0-.072-.492 2.19 2.19 0 0 1-.036-.204c0-.056.024-.1.072-.132a.52.52 0 0 1 .192-.084c.072-.024.144-.04.216-.048.072-.008.128-.012.168-.012.096 0 .168.044.216.132a.912.912 0 0 1 .12.324c.032.12.06.232.084.336.256-.28.548-.5.876-.66.328-.16.66-.24.996-.24.616 0 1.096.172 1.44.516.344.344.516.82.516 1.428v4.164c0 .176-.16.264-.48.264h-.048c-.32 0-.48-.088-.48-.264v-4.068c0-.368-.108-.652-.324-.852-.208-.208-.508-.312-.9-.312a1.66 1.66 0 0 0-.816.228 2.4 2.4 0 0 0-.696.612v4.392c0 .176-.16.264-.48.264h-.048Zm9.551 0c-.32 0-.48-.088-.48-.264v-7.8c0-.24.12-.36.36-.36h2.436c.256 0 .536.028.84.084.312.056.604.168.876.336.28.16.508.396.684.708.184.312.276.72.276 1.224 0 .44-.068.808-.204 1.104a2.133 2.133 0 0 1-.516.72 2.44 2.44 0 0 1-.672.408c-.232.096-.452.16-.66.192a3.472 3.472 0 0 1-.504.048h-1.86v3.336c0 .176-.16.264-.48.264h-.096Zm.576-4.512h1.872c.12 0 .26-.02.42-.06.168-.04.328-.116.48-.228.16-.112.292-.268.396-.468.104-.208.156-.476.156-.804 0-.4-.088-.7-.264-.9a1.227 1.227 0 0 0-.624-.42 2.375 2.375 0 0 0-.732-.12h-1.704v3Zm6.328 4.512c-.32 0-.48-.088-.48-.264v-4.212c0-.328-.012-.6-.036-.816a5.344 5.344 0 0 0-.072-.492 2.19 2.19 0 0 1-.036-.204c0-.056.024-.1.072-.132a.52.52 0 0 1 .192-.084c.072-.024.144-.04.216-.048.072-.008.128-.012.168-.012.096 0 .168.044.216.132a.912.912 0 0 1 .12.324c.032.12.06.232.084.336.208-.288.428-.508.66-.66.24-.16.484-.24.732-.24.232 0 .404.04.516.12.12.072.18.188.18.348 0 .072-.012.16-.036.264a.93.93 0 0 1-.084.276c-.032.072-.072.108-.12.108-.08 0-.16-.02-.24-.06-.072-.048-.212-.072-.42-.072a.947.947 0 0 0-.564.18c-.168.12-.3.244-.396.372l-.144.18v4.392c0 .176-.16.264-.48.264h-.048Zm6.044.048c-.904 0-1.596-.272-2.076-.816-.472-.544-.708-1.332-.708-2.364 0-1.04.24-1.84.72-2.4.48-.56 1.168-.84 2.064-.84.88 0 1.552.28 2.016.84.472.552.708 1.352.708 2.4 0 1.04-.232 1.832-.696 2.376-.456.536-1.132.804-2.028.804Zm-.036-.864c.592 0 1.024-.188 1.296-.564.28-.384.42-.976.42-1.776s-.14-1.392-.42-1.776c-.272-.384-.704-.576-1.296-.576-.584 0-1.012.192-1.284.576-.272.376-.408.968-.408 1.776 0 .8.136 1.392.408 1.776.272.376.7.564 1.284.564Zm6.46 3.336c-.472 0-.892-.052-1.26-.156-.368-.096-.656-.26-.864-.492-.208-.232-.312-.54-.312-.924 0-.352.1-.66.3-.924.2-.264.448-.46.744-.588l.012-.024a1.39 1.39 0 0 1-.336-.408c-.08-.16-.12-.352-.12-.576 0-.256.056-.476.168-.66a1.48 1.48 0 0 1 .48-.492 1.794 1.794 0 0 1-.78-.696 2.025 2.025 0 0 1-.252-.996c0-.368.088-.696.264-.984.184-.296.452-.532.804-.708.352-.176.784-.264 1.296-.264.128 0 .252.008.372.024.12.008.232.024.336.048h2.184c.16 0 .24.12.24.36v.144c0 .24-.08.36-.24.36-.096 0-.24-.008-.432-.024a5.528 5.528 0 0 1-.492-.06l-.012.024c.16.176.264.348.312.516.056.168.084.356.084.564a1.856 1.856 0 0 1-1.068 1.704c-.344.176-.776.264-1.296.264-.344 0-.612.056-.804.168-.184.112-.276.3-.276.564 0 .24.092.416.276.528.184.104.416.176.696.216.288.032.588.068.9.108.36.04.684.116.972.228.296.104.528.264.696.48.176.208.264.496.264.864 0 .384-.108.708-.324.972-.208.272-.524.48-.948.624-.424.144-.952.216-1.584.216Zm.132-.828c.6 0 1.044-.076 1.332-.228a.726.726 0 0 0 .432-.696c0-.24-.096-.416-.288-.528a1.988 1.988 0 0 0-.708-.24c-.288-.04-.584-.072-.888-.096a4.216 4.216 0 0 1-.804-.156 1.53 1.53 0 0 0-.504.372c-.136.16-.204.372-.204.636 0 .336.124.576.372.72.256.144.676.216 1.26.216Zm0-4.98c.384 0 .712-.08.984-.24.28-.16.42-.452.42-.876 0-.432-.14-.728-.42-.888-.272-.16-.6-.24-.984-.24s-.712.08-.984.24c-.272.16-.408.456-.408.888 0 .424.136.716.408.876.272.16.6.24.984.24Zm4.943 3.288c-.32 0-.48-.088-.48-.264v-4.212c0-.328-.012-.6-.036-.816a5.344 5.344 0 0 0-.072-.492 2.19 2.19 0 0 1-.036-.204c0-.056.024-.1.072-.132a.52.52 0 0 1 .192-.084c.072-.024.144-.04.216-.048.072-.008.128-.012.168-.012.096 0 .168.044.216.132a.912.912 0 0 1 .12.324c.032.12.06.232.084.336.208-.288.428-.508.66-.66.24-.16.484-.24.732-.24.232 0 .404.04.516.12.12.072.18.188.18.348 0 .072-.012.16-.036.264a.93.93 0 0 1-.084.276c-.032.072-.072.108-.12.108-.08 0-.16-.02-.24-.06-.072-.048-.212-.072-.42-.072a.947.947 0 0 0-.564.18c-.168.12-.3.244-.396.372l-.144.18v4.392c0 .176-.16.264-.48.264h-.048Zm6.2.048c-.992 0-1.732-.26-2.22-.78-.48-.52-.72-1.316-.72-2.388 0-.712.104-1.308.312-1.788.216-.48.532-.844.948-1.092.416-.248.928-.372 1.536-.372.552 0 1.008.12 1.368.36.368.24.644.592.828 1.056.184.464.276 1.036.276 1.716a.41.41 0 0 1-.072.192.923.923 0 0 1-.156.204c-.064.064-.12.096-.168.096h-3.792c.048.664.22 1.152.516 1.464.296.312.74.468 1.332.468.352 0 .648-.04.888-.12a4.01 4.01 0 0 0 .588-.252c.144-.088.236-.132.276-.132.056 0 .116.04.18.12.064.08.12.168.168.264a.553.553 0 0 1 .072.216c0 .072-.056.152-.168.24a1.92 1.92 0 0 1-.468.252c-.192.08-.42.148-.684.204a4.566 4.566 0 0 1-.84.072Zm-1.86-3.66h3.12c0-.632-.12-1.104-.36-1.416-.24-.32-.6-.48-1.08-.48-.52 0-.92.16-1.2.48-.28.312-.44.784-.48 1.416Zm7.104 3.696c-.36 0-.684-.044-.972-.132a2.38 2.38 0 0 1-.684-.312c-.168-.12-.252-.224-.252-.312 0-.048.024-.12.072-.216.048-.096.104-.184.168-.264.064-.08.124-.12.18-.12.032 0 .104.04.216.12.112.08.268.16.468.24.208.08.452.12.732.12.784 0 1.176-.296 1.176-.888 0-.32-.116-.552-.348-.696a3.386 3.386 0 0 0-.852-.396 6.534 6.534 0 0 1-.804-.336 1.693 1.693 0 0 1-.624-.564c-.16-.24-.24-.564-.24-.972 0-.336.084-.636.252-.9.176-.264.412-.468.708-.612a2.276 2.276 0 0 1 1.032-.228c.272 0 .528.024.768.072.24.048.436.112.588.192.152.08.228.164.228.252a.644.644 0 0 1-.072.252 1.28 1.28 0 0 1-.144.276c-.056.08-.112.12-.168.12-.032 0-.14-.052-.324-.156-.184-.104-.44-.156-.768-.156-.296 0-.548.072-.756.216a.66.66 0 0 0-.312.588c0 .224.064.404.192.54.128.128.376.252.744.372s.696.264.984.432c.288.16.516.368.684.624.168.248.252.572.252.972 0 .36-.096.68-.288.96-.184.28-.436.504-.756.672-.32.16-.68.24-1.08.24Zm4.958 0c-.36 0-.684-.044-.972-.132a2.38 2.38 0 0 1-.684-.312c-.168-.12-.252-.224-.252-.312 0-.048.024-.12.072-.216.048-.096.104-.184.168-.264.064-.08.124-.12.18-.12.032 0 .104.04.216.12.112.08.268.16.468.24.208.08.452.12.732.12.784 0 1.176-.296 1.176-.888 0-.32-.116-.552-.348-.696a3.386 3.386 0 0 0-.852-.396 6.534 6.534 0 0 1-.804-.336 1.693 1.693 0 0 1-.624-.564c-.16-.24-.24-.564-.24-.972 0-.336.084-.636.252-.9.176-.264.412-.468.708-.612a2.276 2.276 0 0 1 1.032-.228c.272 0 .528.024.768.072.24.048.436.112.588.192.152.08.228.164.228.252a.644.644 0 0 1-.072.252 1.28 1.28 0 0 1-.144.276c-.056.08-.112.12-.168.12-.032 0-.14-.052-.324-.156-.184-.104-.44-.156-.768-.156-.296 0-.548.072-.756.216a.66.66 0 0 0-.312.588c0 .224.064.404.192.54.128.128.376.252.744.372s.696.264.984.432c.288.16.516.368.684.624.168.248.252.572.252.972 0 .36-.096.68-.288.96-.184.28-.436.504-.756.672-.32.16-.68.24-1.08.24Z"/>
  <defs>
    <pattern id="b" width="1" height="1" patternContentUnits="objectBoundingBox">
      <use xlink:href="#l" transform="scale(.00333)"/>
    </pattern>
    <pattern id="c" width="1" height="1" patternContentUnits="objectBoundingBox">
      <use xlink:href="#m" transform="scale(.00333)"/>
    </pattern>
    <pattern id="e" width="1" height="1" patternContentUnits="objectBoundingBox">
      <use xlink:href="#n" transform="scale(.00333)"/>
    </pattern>
    <pattern id="f" width="1" height="1" patternContentUnits="objectBoundingBox">
      <use xlink:href="#o" transform="scale(.00333)"/>
    </pattern>
    <pattern id="g" width="1" height="1" patternContentUnits="objectBoundingBox">
      <use xlink:href="#p" transform="scale(.00195)"/>
    </pattern>
    <pattern id="i" width="1" height="1" patternContentUnits="objectBoundingBox">
      <use xlink:href="#q" transform="scale(.00156)"/>
    </pattern>
    <pattern id="j" width="1" height="1" patternContentUnits="objectBoundingBox">
      <use xlink:href="#l" transform="scale(.00333)"/>
    </pattern>
    <pattern id="k" width="1" height="1" patternContentUnits="objectBoundingBox">
      <use xlink:href="#r" transform="scale(.00333)"/>
    </pattern>
    <filter id="a" width="234" height="83" x="12" y="120" color-interpolation-filters="sRGB" filterUnits="userSpaceOnUse">
      <feFlood flood-opacity="0" result="BackgroundImageFix"/>
      <feColorMatrix in="SourceAlpha" result="hardAlpha" values="0 0 0 0 0 0 0 0 0 0 0 0 0 0 0 0 0 0 127 0"/>
      <feMorphology in="SourceAlpha" radius="12" result="effect1_dropShadow_0_188"/>
      <feOffset dy="13"/>
      <feGaussianBlur stdDeviation="15"/>
      <feComposite in2="hardAlpha" operator="out"/>
      <feColorMatrix values="0 0 0 0 0.180392 0 0 0 0 0.388235 0 0 0 0 0.921569 0 0 0 0.3 0"/>
      <feBlend in2="BackgroundImageFix" result="effect1_dropShadow_0_188"/>
      <feBlend in="SourceGraphic" in2="effect1_dropShadow_0_188" result="shape"/>
    </filter>
    <filter id="d" width="286" height="83" x="136" y="187" color-interpolation-filters="sRGB" filterUnits="userSpaceOnUse">
      <feFlood flood-opacity="0" result="BackgroundImageFix"/>
      <feColorMatrix in="SourceAlpha" result="hardAlpha" values="0 0 0 0 0 0 0 0 0 0 0 0 0 0 0 0 0 0 127 0"/>
      <feMorphology in="SourceAlpha" radius="12" result="effect1_dropShadow_0_188"/>
      <feOffset dy="13"/>
      <feGaussianBlur stdDeviation="15"/>
      <feComposite in2="hardAlpha" operator="out"/>
      <feColorMatrix values="0 0 0 0 0.180392 0 0 0 0 0.388235 0 0 0 0 0.921569 0 0 0 0.3 0"/>
      <feBlend in2="BackgroundImageFix" result="effect1_dropShadow_0_188"/>
      <feBlend in="SourceGraphic" in2="effect1_dropShadow_0_188" result="shape"/>
    </filter>
    <filter id="h" width="231" height="83" x="296" y="254" color-interpolation-filters="sRGB" filterUnits="userSpaceOnUse">
      <feFlood flood-opacity="0" result="BackgroundImageFix"/>
      <feColorMatrix in="SourceAlpha" result="hardAlpha" values="0 0 0 0 0 0 0 0 0 0 0 0 0 0 0 0 0 0 127 0"/>
      <feMorphology in="SourceAlpha" radius="12" result="effect1_dropShadow_0_188"/>
      <feOffset dy="13"/>
      <feGaussianBlur stdDeviation="15"/>
      <feComposite in2="hardAlpha" operator="out"/>
      <feColorMatrix values="0 0 0 0 0.180392 0 0 0 0 0.388235 0 0 0 0 0.921569 0 0 0 0.3 0"/>
      <feBlend in2="BackgroundImageFix" result="effect1_dropShadow_0_188"/>
      <feBlend in="SourceGraphic" in2="effect1_dropShadow_0_188" result="shape"/>
    </filter>
  </defs>
</svg>
