<svg xmlns="http://www.w3.org/2000/svg" width="45" height="40" fill="none" viewBox="0 0 45 40">
  <path fill="#4F4F4F" d="M1.335 4.418a.75.75 0 0 1-.67-1.342l.67 1.342Zm20.821 11.204.473.582-.473-.582Zm17.406 23.95a.75.75 0 0 1-1.058.066l-5.06-4.468a.75.75 0 1 1 .992-1.124l4.498 3.971 3.971-4.498a.75.75 0 0 1 1.125.993l-4.468 5.06ZM.665 3.076C7.98-.58 16.979-.45 22.443 2.103c2.727 1.274 4.753 3.247 5.011 5.828.258 2.575-1.284 5.395-4.825 8.273l-.946-1.164c3.397-2.762 4.46-5.137 4.279-6.96-.182-1.816-1.64-3.443-4.154-4.618C16.787 1.116 8.27.95 1.335 4.418l-.67-1.342Zm21.964 13.128c-2.519 2.048-4.297 3.14-5.456 3.492-.538.163-1.22.25-1.72-.167-.536-.445-.49-1.13-.386-1.57.223-.944 1.018-2.175 2.081-3.339 1.087-1.189 2.538-2.401 4.195-3.284 1.655-.88 3.555-1.452 5.516-1.294 1.98.16 3.951 1.059 5.728 2.99 3.505 3.81 6.27 11.646 7.162 25.997l-1.498.093c-.889-14.297-3.636-21.671-6.768-25.074-1.541-1.676-3.17-2.383-4.745-2.51-1.594-.13-3.205.332-4.69 1.123-1.484.79-2.803 1.889-3.792 2.97-1.012 1.108-1.596 2.108-1.73 2.674-.074.316.048.206-.114.071-.13-.107-.141.026.326-.116.852-.258 2.433-1.177 4.945-3.22l.946 1.164Z"/>
</svg>
