<svg xmlns="http://www.w3.org/2000/svg" width="119" height="31" fill="none" viewBox="0 0 119 31">
  <g clip-path="url(#a)">
    <mask id="b" width="153" height="87" x="-32" y="-28" maskUnits="userSpaceOnUse" style="mask-type:luminance">
      <path fill="#fff" d="M-31.152-27.201h151.961V58.2H-31.152v-85.402Z"/>
    </mask>
    <g mask="url(#b)">
      <mask id="c" width="31" height="31" x="0" y="0" maskUnits="userSpaceOnUse" style="mask-type:luminance">
        <path fill="#fff" d="M15.5 31C24.06 31 31 24.06 31 15.5 31 6.94 24.06 0 15.5 0 6.94 0 0 6.94 0 15.5 0 24.06 6.94 31 15.5 31Z"/>
      </mask>
      <g mask="url(#c)">
        <path fill="#E5E5E4" d="M-.762-.76h32.52v32.52H-.762V-.76Z"/>
      </g>
      <mask id="d" width="31" height="31" x="0" y="0" maskUnits="userSpaceOnUse" style="mask-type:luminance">
        <path fill="#fff" d="M15.5 30.696c8.393 0 15.197-6.804 15.197-15.196C30.697 7.107 23.893.304 15.5.304 7.108.304.305 7.107.305 15.5c0 8.392 6.803 15.196 15.196 15.196Z"/>
      </mask>
      <g mask="url(#d)">
        <path fill="#fff" d="M-.457-.456h31.912v31.912H-.457V-.456Z"/>
      </g>
      <mask id="e" width="29" height="29" x="1" y="1" maskUnits="userSpaceOnUse" style="mask-type:luminance">
        <path fill="#fff" d="M15.5 29.48c7.721 0 13.98-6.259 13.98-13.98S23.221 1.52 15.5 1.52 1.52 7.779 1.52 15.5 7.779 29.48 15.5 29.48Z"/>
      </mask>
      <g mask="url(#e)">
        <path fill="#4A8CFF" d="M.758.76h29.48v29.48H.758V.76Z"/>
      </g>
      <mask id="f" width="19" height="11" x="6" y="10" maskUnits="userSpaceOnUse" style="mask-type:luminance">
        <path fill="#fff" d="m19.755 13.685 3.951-2.887c.345-.28.608-.216.608.304v8.805c0 .583-.328.517-.608.304l-3.95-2.887v-3.639ZM6.383 11.123v6.565a2.688 2.688 0 0 0 2.7 2.675h9.574a.49.49 0 0 0 .49-.487v-6.564a2.688 2.688 0 0 0-2.7-2.675H6.874a.49.49 0 0 0-.491.486Z"/>
      </mask>
      <g mask="url(#f)">
        <path fill="#fff" d="M5.621 9.877h19.451v11.246H5.622V9.877Z"/>
      </g>
    </g>
  </g>
  <path fill="#2D8CFF" fill-rule="evenodd" d="M103.326 11.947c.302.522.401 1.114.433 1.78l.043.888v6.213l.044.89c.086 1.452 1.157 2.526 2.621 2.617l.886.043v-9.761l.043-.888c.037-.657.135-1.262.442-1.788a3.552 3.552 0 0 1 6.146.01c.301.522.397 1.125.434 1.778l.043.886v6.214l.043.89c.091 1.459 1.154 2.533 2.623 2.618l.883.043V13.73a7.1 7.1 0 0 0-12.427-4.697 7.095 7.095 0 0 0-9.303-1.186c-.693-.773-2.238-1.22-3.128-1.22V24.38l.887-.043c1.484-.098 2.56-1.144 2.617-2.617l.048-.89v-6.213l.043-.888c.037-.671.13-1.259.434-1.784a3.553 3.553 0 0 1 6.145.002ZM42.548 24.335l.887.043h13.314l-.043-.885c-.122-1.459-1.154-2.526-2.617-2.622l-.887-.043h-7.99l10.65-10.654-.043-.886c-.07-1.474-1.145-2.538-2.617-2.622l-.888-.041L39 6.62l.043.887c.117 1.446 1.165 2.536 2.617 2.617l.89.045h7.988l-10.65 10.657.043.887c.086 1.468 1.143 2.528 2.617 2.622ZM89.663 9.223c3.466 3.466 3.467 9.088 0 12.552a8.885 8.885 0 0 1-12.56 0A8.88 8.88 0 0 1 83.376 6.62a8.89 8.89 0 0 1 6.287 2.603Zm-2.511 2.514a5.33 5.33 0 0 1 0 7.534 5.33 5.33 0 0 1-7.534 0 5.33 5.33 0 0 1 0-7.534 5.33 5.33 0 0 1 7.534 0ZM64.749 6.625a8.87 8.87 0 0 1 6.273 2.6c3.467 3.466 3.467 9.089 0 12.552a8.885 8.885 0 0 1-12.56 0 8.88 8.88 0 0 1 6.273-15.155h.012v.003h.002Zm3.759 5.109a5.33 5.33 0 0 1 0 7.535 5.33 5.33 0 0 1-7.534 0 5.33 5.33 0 0 1 0-7.533 5.332 5.332 0 0 1 7.534-.002Z" clip-rule="evenodd"/>
  <defs>
    <clipPath id="a">
      <path fill="#fff" d="M0 0h31v31H0z"/>
    </clipPath>
  </defs>
</svg>
